<?xml version="1.0" encoding="UTF-8"?>
<svg version="1.1" xmlns="http://www.w3.org/2000/svg" width="399" height="46">
<path d="M0 0 C10.89 0 21.78 0 33 0 C33 11.22 33 22.44 33 34 C22.11 34 11.22 34 0 34 C0 22.78 0 11.56 0 0 Z " fill="#FBEDED" transform="translate(14,3)"/>
<path d="M0 0 C2.3125 0.0625 2.3125 0.0625 5 1 C6.09609875 3.32203841 7.05790737 5.61669837 8 8 C9.29784946 10.97475872 10.64705482 13.92496915 12 16.875 C12.34289062 17.64585938 12.68578125 18.41671875 13.0390625 19.2109375 C13.37679688 19.943125 13.71453125 20.6753125 14.0625 21.4296875 C14.36285156 22.09210449 14.66320312 22.75452148 14.97265625 23.43701172 C15.99375384 25.34184646 15.99375384 25.34184646 19 26 C19 18.41 19 10.82 19 3 C18.01 3 17.02 3 16 3 C16 2.01 16 1.02 16 0 C18.94305901 -0.31342481 21.13288378 -0.52670771 24 0 C26.25475405 2.12863548 27.65398944 3.73122136 29.3125 6.25 C29.72822266 6.83652344 30.14394531 7.42304688 30.57226562 8.02734375 C31.73418536 9.67139552 32.86801394 11.33519634 34 13 C34.99 14.32 35.98 15.64 37 17 C37 12.71 37 8.42 37 4 C36.01 3.67 35.02 3.34 34 3 C34 2.01 34 1.02 34 0 C37.3 0 40.6 0 44 0 C44 0.99 44 1.98 44 3 C43.34 3 42.68 3 42 3 C42.495 15.375 42.495 15.375 43 28 C41.68 28.33 40.36 28.66 39 29 C37.22776281 26.91784697 35.45717274 24.83433081 33.6875 22.75 C33.18798828 22.16347656 32.68847656 21.57695312 32.17382812 20.97265625 C31.68720703 20.39902344 31.20058594 19.82539063 30.69921875 19.234375 C30.25408936 18.71069336 29.80895996 18.18701172 29.3503418 17.64746094 C27.84399138 15.80966441 26.42575298 13.90100397 25 12 C24.67 16.62 24.34 21.24 24 26 C24.99 26 25.98 26 27 26 C27 26.99 27 27.98 27 29 C20.07 29 13.14 29 6 29 C6 28.01 6 27.02 6 26 C6.99 26 7.98 26 9 26 C8.505 23.525 8.505 23.525 8 21 C4.29212965 20.71671619 0.69681924 20.53653446 -3 21 C-5.30487721 23.30317533 -5.30487721 23.30317533 -6 26 C-5.34 26 -4.68 26 -4 26 C-4 26.99 -4 27.98 -4 29 C-7.3 29 -10.6 29 -14 29 C-14 28.01 -14 27.02 -14 26 C-13.01 25.67 -12.02 25.34 -11 25 C-9.6994438 22.82425027 -9.6994438 22.82425027 -8.625 20.125 C-8.19960938 19.13757813 -7.77421875 18.15015625 -7.3359375 17.1328125 C-6.89507812 16.09898438 -6.45421875 15.06515625 -6 14 C-5.08807232 11.99783475 -4.17161661 9.99772386 -3.25 8 C-2.02595265 5.33498551 -0.92820136 2.78460408 0 0 Z M1 9 C-1.2013866 12.80427492 -1.2013866 12.80427492 -2 17 C0.31 17 2.62 17 5 17 C4.40138258 14.64828869 3.73075648 12.3140622 3 10 C2.34 9.67 1.68 9.34 1 9 Z " fill="#FCFBFB" transform="translate(302,7)"/>
<path d="M0 0 C3.96 0 7.92 0 12 0 C12 0.99 12 1.98 12 3 C11.01 3 10.02 3 9 3 C9.13818532 6.47951523 9.28682601 9.95850495 9.4375 13.4375 C9.47681641 14.43072266 9.51613281 15.42394531 9.55664062 16.44726562 C9.61948242 17.86362305 9.61948242 17.86362305 9.68359375 19.30859375 C9.72025146 20.18314209 9.75690918 21.05769043 9.79467773 21.95874023 C9.78181066 23.9927402 9.78181066 23.9927402 11 25 C15.61288265 25.50836592 15.61288265 25.50836592 19.69458008 23.76245117 C21.32080103 21.56688561 21.42062815 20.26528098 21.51171875 17.55078125 C21.54716797 16.70322266 21.58261719 15.85566406 21.61914062 14.98242188 C21.64169922 14.10134766 21.66425781 13.22027344 21.6875 12.3125 C21.72166016 11.41982422 21.75582031 10.52714844 21.79101562 9.60742188 C21.87345648 7.40507329 21.94261551 5.20312062 22 3 C20.68 2.67 19.36 2.34 18 2 C18 1.34 18 0.68 18 0 C25.26 0 32.52 0 40 0 C39 3 39 3 37 4 C36.67 10.93 36.34 17.86 36 25 C38.97 24.67 41.94 24.34 45 24 C45.33 23.34 45.66 22.68 46 22 C47.32 22.33 48.64 22.66 50 23 C50 24.98 50 26.96 50 29 C42.74 29 35.48 29 28 29 C28 28.01 28 27.02 28 26 C28.66 25.67 29.32 25.34 30 25 C30 18.07 30 11.14 30 4 C28.68 3.67 27.36 3.34 26 3 C26.01571045 3.57967529 26.0314209 4.15935059 26.04760742 4.7565918 C26.11022791 7.40012739 26.14907518 10.04350655 26.1875 12.6875 C26.21263672 13.59951172 26.23777344 14.51152344 26.26367188 15.45117188 C26.35702951 24.00895523 26.35702951 24.00895523 23 28 C20.06461547 29.46769227 17.39222984 29.28669649 14.125 29.375 C12.89007813 29.42398438 11.65515625 29.47296875 10.3828125 29.5234375 C7 29 7 29 4.5703125 27.15234375 C2.25535446 22.50515186 2.57149464 18.29893232 2.75 13.1875 C2.76804688 12.20845703 2.78609375 11.22941406 2.8046875 10.22070312 C2.85167113 7.81279229 2.91734306 5.40690665 3 3 C2.01 2.67 1.02 2.34 0 2 C0 1.34 0 0.68 0 0 Z " fill="#FCFBFB" transform="translate(222,7)"/>
<path d="M0 0 C10.89 0 21.78 0 33 0 C33 11.22 33 22.44 33 34 C22.11 34 11.22 34 0 34 C0 22.78 0 11.56 0 0 Z M5 7 C1.73581221 11.89628169 2.19003457 17.28905729 3 23 C4.93316096 26.60540449 7.33536692 29.16768346 11 31 C17.31130983 31.53625508 22.54866404 31.58640524 28 28 C29.28612676 26.94021067 29.28612676 26.94021067 29.09765625 24.49609375 C29.08605469 23.48675781 29.07445313 22.47742188 29.0625 21.4375 C29.05347656 20.42558594 29.04445313 19.41367187 29.03515625 18.37109375 C29.02355469 17.58863281 29.01195313 16.80617188 29 16 C26.36 16 23.72 16 21 16 C20.80083984 15.06027344 20.80083984 15.06027344 20.59765625 14.1015625 C20.42105469 13.28429688 20.24445312 12.46703125 20.0625 11.625 C19.88847656 10.81289062 19.71445312 10.00078125 19.53515625 9.1640625 C19.07669307 6.970537 19.07669307 6.970537 18 5 C23.875 8.75 23.875 8.75 25 11 C25.99 11 26.98 11 28 11 C27.77063276 7.55949134 27.60838078 5.60838078 25.125 3.125 C17.26846344 0.29664684 10.66379049 0.75530793 5 7 Z " fill="#FC2D33" transform="translate(14,3)"/>
<path d="M0 0 C1.97419922 -0.05607422 1.97419922 -0.05607422 3.98828125 -0.11328125 C8.2106846 0.37271871 9.72954978 1.33829731 12.6875 4.3125 C16.15753049 9.33806141 16.56410617 14.38818357 15.6875 20.3125 C13.65798346 24.29905034 11.53398341 27.03957799 7.6875 29.3125 C2.19199045 30.05681281 -4.27503311 30.51997359 -9.5234375 28.43359375 C-13.24804861 25.56923546 -15.06177954 21.7268075 -16.3125 17.3125 C-16.70588296 12.02992884 -15.7911531 8.39848704 -12.375 4.3125 C-8.53685003 0.23859143 -5.44237452 0.07782232 0 0 Z M-6.3125 4.3125 C-9.02456627 7.79944235 -10.14308407 10.90768591 -10.3125 15.3125 C-8.89508041 21.82543796 -8.89508041 21.82543796 -4.3125 26.3125 C1.48694146 26.87971217 1.48694146 26.87971217 6.625 24.5 C9.84184181 21.08819808 9.97828625 17.96530222 9.90234375 13.375 C9.56594442 10.14556643 8.49048752 7.98589529 6.6875 5.3125 C2.03044912 1.81971184 -1.15806901 1.60642373 -6.3125 4.3125 Z " fill="#FCFBFB" transform="translate(162.3125,6.6875)"/>
<path d="M0 0 C3.0625 -0.5 3.0625 -0.5 7 0 C9.75617214 2.33443028 11.81834064 5.13594947 14 8 C15.13750184 9.3404482 16.28270267 10.67442279 17.4375 12 C18.283125 12.99 19.12875 13.98 20 15 C20.33 11.04 20.66 7.08 21 3 C20.01 3 19.02 3 18 3 C18 2.01 18 1.02 18 0 C21.3 0 24.6 0 28 0 C28 0.99 28 1.98 28 3 C27.01 3.495 27.01 3.495 26 4 C26 12.25 26 20.5 26 29 C24.68 29 23.36 29 22 29 C19.81640625 26.5859375 19.81640625 26.5859375 17.5625 23.375 C16.77459301 22.27261071 15.98554023 21.1710394 15.1953125 20.0703125 C14.47085938 19.05710937 13.74640625 18.04390625 13 17 C11.37543649 14.95619429 9.70371536 12.97850815 8 11 C8 15.62 8 20.24 8 25 C8.66 25.33 9.32 25.66 10 26 C10 26.99 10 27.98 10 29 C6.7 29 3.4 29 0 29 C0 28.01 0 27.02 0 26 C0.99 26 1.98 26 3 26 C3 18.74 3 11.48 3 4 C2.01 3.67 1.02 3.34 0 3 C0 2.01 0 1.02 0 0 Z " fill="#FCFBFB" transform="translate(177,7)"/>
<path d="M0 0 C1.216875 -0.00773438 2.43375 -0.01546875 3.6875 -0.0234375 C7.16849675 0.3952673 8.6346981 0.81649274 11 3.375 C11.25 7.0625 11.25 7.0625 11 10.375 C8.40553306 9.30142747 7.2007031 8.71619527 5.75 6.25 C3.64637252 3.99611342 2.98991351 4.04116488 0 3.9375 C-2.622731 4.07224581 -3.73485098 4.19538293 -5.9375 5.6875 C-8.75059513 10.15535697 -8.58403469 15.28555481 -8 20.375 C-5.85547638 23.89201873 -4.42376617 24.26348259 -0.4375 25.3125 C2.92861008 25.71382688 2.92861008 25.71382688 4.9375 24 C6.09120823 22.55909308 6.09120823 22.55909308 6 21.375 C4.35 21.045 2.7 20.715 1 20.375 C1 19.385 1 18.395 1 17.375 C4.96 17.375 8.92 17.375 13 17.375 C13.29228757 20.29787566 13.48402434 22.52523871 13 25.375 C10.07621174 28.71647229 8.29422857 29.21752732 3.91796875 29.75 C-1.17904037 29.9364049 -4.96233444 29.85805121 -9.625 27.6875 C-13.86977611 23.55442853 -15.18833039 20.8693443 -15.4375 14.9375 C-15.27120985 9.05399598 -13.55031726 5.82002893 -9.296875 1.7421875 C-6.12198907 -0.14762555 -3.67060973 -0.02333015 0 0 Z " fill="#FCFBFB" transform="translate(101,6.625)"/>
<path d="M0 0 C2.2421875 -0.078125 2.2421875 -0.078125 5 1 C6.81298557 3.90141249 7.93364845 7.05265731 9.125 10.25 C11.94100225 19.39289851 11.94100225 19.39289851 18 26 C18 26.99 18 27.98 18 29 C14.04 29 10.08 29 6 29 C6 28.01 6 27.02 6 26 C6.66 25.67 7.32 25.34 8 25 C8 23.68 8 22.36 8 21 C4.29212965 20.71671619 0.69681924 20.53653446 -3 21 C-5.30487721 23.30317533 -5.30487721 23.30317533 -6 26 C-5.34 26 -4.68 26 -4 26 C-4 26.99 -4 27.98 -4 29 C-6.97 29 -9.94 29 -13 29 C-13 28.01 -13 27.02 -13 26 C-12.34 25.67 -11.68 25.34 -11 25 C-9.79601904 22.83852321 -9.79601904 22.83852321 -8.65234375 20.1953125 C-8.21212891 19.21949219 -7.77191406 18.24367188 -7.31835938 17.23828125 C-6.86267578 16.21089844 -6.40699219 15.18351562 -5.9375 14.125 C-5.47794922 13.10535156 -5.01839844 12.08570313 -4.54492188 11.03515625 C-2.08641922 5.5911605 -2.08641922 5.5911605 0 0 Z M1 9 C-1.2013866 12.80427492 -1.2013866 12.80427492 -2 17 C0.31 17 2.62 17 5 17 C4.01 14.36 3.02 11.72 2 9 C1.67 9 1.34 9 1 9 Z " fill="#FCFBFB" transform="translate(69,7)"/>
<path d="M0 0 C1.31226563 -0.00773438 2.62453125 -0.01546875 3.9765625 -0.0234375 C7.375 0.375 7.375 0.375 9.32421875 1.69921875 C10.90742283 4.22410556 10.56850851 6.47237242 10.375 9.375 C9.055 9.045 7.735 8.715 6.375 8.375 C6.045 7.055 5.715 5.735 5.375 4.375 C3.77167209 4.29378076 2.16715974 4.23570866 0.5625 4.1875 C-0.33082031 4.15269531 -1.22414063 4.11789062 -2.14453125 4.08203125 C-4.65702016 4.1679595 -4.65702016 4.1679595 -6.38671875 5.69921875 C-9.388232 9.76120356 -9.0641633 14.5610946 -8.625 19.375 C-7.8486068 22.4495356 -7.8486068 22.4495356 -5.625 24.375 C-0.9462413 25.6022154 1.16730374 25.88594842 5.625 24 C6.98625 23.195625 6.98625 23.195625 8.375 22.375 C10.75 21.6875 10.75 21.6875 12.375 21.375 C11.8126049 24.63689156 10.9609495 26.28634848 8.375 28.375 C2.98619172 30.17126943 -3.49997056 30.59119819 -8.86328125 28.50390625 C-13.20522832 25.66815923 -15.27571595 22.43481517 -16.625 17.375 C-16.75137879 12.12125323 -16.04031135 7.52216378 -12.625 3.375 C-8.43947761 0.21669372 -5.17972271 -0.03064925 0 0 Z " fill="#FCFBFB" transform="translate(361.625,6.625)"/>
<path d="M0 0 C0.99 0.66 1.98 1.32 3 2 C3.1875 5.625 3.1875 5.625 3 9 C1.1875 8.75 1.1875 8.75 -1 8 C-1.4125 7.319375 -1.825 6.63875 -2.25 5.9375 C-3.78483739 3.84988652 -3.78483739 3.84988652 -5.859375 3.6328125 C-9.05651445 3.52779697 -11.24766808 3.4903558 -13.9375 5.3125 C-16.44173055 9.28980735 -16.35472244 13.45955281 -16 18 C-14.89804378 21.89922969 -14.44935605 22.7004293 -11 25 C-5.82073355 25.20030312 -1.98145793 24.36892594 2 21 C2.99 21.33 3.98 21.66 5 22 C3.53077607 25.87340853 1.66587011 27.17219922 -2 29 C-7.52460923 29.82534539 -12.46206568 29.7015139 -17.5625 27.375 C-21.8594792 23.18819976 -23.19973147 19.53786822 -23.625 13.625 C-23.41311804 8.46214281 -22.27072035 5.10151292 -18.609375 1.40234375 C-13.03354025 -1.59425008 -6.11185461 -0.82119632 0 0 Z " fill="#FCFBFB" transform="translate(143,7)"/>
<path d="M0 0 C0.97066406 -0.00515625 1.94132813 -0.0103125 2.94140625 -0.015625 C5.4375 0.25 5.4375 0.25 7.4375 2.25 C7.5625 4.875 7.5625 4.875 7.4375 7.25 C6.1175 7.25 4.7975 7.25 3.4375 7.25 C3.1075 6.26 2.7775 5.27 2.4375 4.25 C0.7875 4.25 -0.8625 4.25 -2.5625 4.25 C-2.8925 4.91 -3.2225 5.57 -3.5625 6.25 C-0.66679387 9.37736262 2.4328422 11.73723223 5.94921875 14.1015625 C7.4375 15.25 7.4375 15.25 8.4375 17.25 C9.01881488 24.4583045 9.01881488 24.4583045 6.796875 27.484375 C3.79489064 29.7308931 2.0883675 29.72623183 -1.625 29.625 C-2.66785156 29.61210938 -3.71070313 29.59921875 -4.78515625 29.5859375 C-7.5625 29.25 -7.5625 29.25 -10.5625 27.25 C-10.75 23.625 -10.75 23.625 -10.5625 20.25 C-9.2425 19.92 -7.9225 19.59 -6.5625 19.25 C-6.2325 21.23 -5.9025 23.21 -5.5625 25.25 C-3.22955225 25.29241723 -0.89547433 25.29092937 1.4375 25.25 C2.67957245 24.20416995 2.67957245 24.20416995 2.8046875 21.9140625 C2.70502823 19.07934512 2.70502823 19.07934512 0.3203125 17.3359375 C-0.58976563 16.77132813 -1.49984375 16.20671875 -2.4375 15.625 C-5.68567871 13.57985044 -7.40624985 12.48437522 -9.5625 9.25 C-9.375 5.6875 -9.375 5.6875 -8.5625 2.25 C-5.19898987 0.00765991 -3.93939944 -0.02098215 0 0 Z " fill="#FCFBFB" transform="translate(214.5625,6.75)"/>
<path d="M0 0 C3.96 0 7.92 0 12 0 C11.67 1.32 11.34 2.64 11 4 C12.85250004 7.23761134 12.85250004 7.23761134 15 10 C16.65 8.02 18.3 6.04 20 4 C19.34 3.67 18.68 3.34 18 3 C18 2.01 18 1.02 18 0 C20.97 0 23.94 0 27 0 C27 0.99 27 1.98 27 3 C25.66666667 4.33333333 24.33333333 5.66666667 23 7 C18.97379389 12.63668856 17.68037237 18.04277194 18 25 C18.66 26.32 19.32 27.64 20 29 C16.7 29 13.4 29 10 29 C10 26 10 26 11 25 C11.45331111 17.1945494 9.38523963 12.09838707 4.7890625 5.8984375 C3.05099133 3.75392213 3.05099133 3.75392213 0 3 C0 2.01 0 1.02 0 0 Z " fill="#FCFBFB" transform="translate(372,7)"/>
<path d="M0 0 C3.14581423 -0.02888514 6.29159469 -0.04675923 9.4375 -0.0625 C10.33533203 -0.07087891 11.23316406 -0.07925781 12.15820312 -0.08789062 C13.01220703 -0.09111328 13.86621094 -0.09433594 14.74609375 -0.09765625 C15.93223267 -0.10551147 15.93223267 -0.10551147 17.14233398 -0.11352539 C19 0 19 0 20 1 C20.04063832 2.66617115 20.042721 4.33388095 20 6 C18.68 6 17.36 6 16 6 C15.67 5.34 15.34 4.68 15 4 C14.34 4 13.68 4 13 4 C13 10.93 13 17.86 13 25 C13.66 25.33 14.32 25.66 15 26 C15 26.99 15 27.98 15 29 C11.37 29 7.74 29 4 29 C4 28.01 4 27.02 4 26 C4.66 25.67 5.32 25.34 6 25 C6.33 17.74 6.66 10.48 7 3 C3.88214887 3.64644661 3.88214887 3.64644661 3 6 C2.01 6 1.02 6 0 6 C0 4.02 0 2.04 0 0 Z " fill="#FCFBFB" transform="translate(271,7)"/>
<path d="M0 0 C6.93 0 13.86 0 21 0 C21 0.33 21 0.66 21 1 C20.33613281 1.09796875 19.67226563 1.1959375 18.98828125 1.296875 C13.64664026 2.20144486 9.90387926 2.97412451 6 7 C3.81648545 10.27527182 3.65172535 11.70170774 3.3671875 15.54296875 C3.28339844 16.61611328 3.19960938 17.68925781 3.11328125 18.79492188 C2.99533203 20.47424805 2.99533203 20.47424805 2.875 22.1875 C2.78863281 23.31865234 2.70226562 24.44980469 2.61328125 25.61523438 C2.40104585 28.40966714 2.19694519 31.20445481 2 34 C1.34 34 0.68 34 0 34 C0 22.78 0 11.56 0 0 Z " fill="#FC484D" transform="translate(14,3)"/>
<path d="M0 0 C0 0.99 0 1.98 0 3 C0.99 3.33 1.98 3.66 3 4 C4.1875 7.5625 4.1875 7.5625 5 11 C2.66705225 11.04241723 0.33297433 11.04092937 -2 11 C-2.33 10.67 -2.66 10.34 -3 10 C-3.474375 10.825 -3.94875 11.65 -4.4375 12.5 C-4.953125 13.325 -5.46875 14.15 -6 15 C-6.33 15 -6.66 15 -7 15 C-7.62384225 6.07559008 -7.62384225 6.07559008 -5.1875 1.875 C-3 0 -3 0 0 0 Z " fill="#FAD4D8" transform="translate(28,9)"/>
<path d="M0 0 C1.32 1.65 2.64 3.3 4 5 C8.3576913 9.48585869 13.03651438 10.11995164 19 11 C18.67 11.66 18.34 12.32 18 13 C12.06 13 6.12 13 0 13 C0 8.71 0 4.42 0 0 Z " fill="#FD282A" transform="translate(16,24)"/>
<path d="M0 0 C2.97 0 5.94 0 9 0 C9.38063221 2.3260857 9.71269945 4.66055264 10 7 C9 8 9 8 5.625 8.1875 C2 8 2 8 -1 6 C-0.67 4.02 -0.34 2.04 0 0 Z " fill="#FB3238" transform="translate(25,23)"/>
<path d="M0 0 C5 2 5 2 6.1875 4.0625 C6.455625 4.701875 6.72375 5.34125 7 6 C7.66 6.33 8.32 6.66 9 7 C9 7.66 9 8.32 9 9 C9.66 9.66 10.32 10.32 11 11 C8.36 11 5.72 11 3 11 C2.01 7.37 1.02 3.74 0 0 Z " fill="#FA3840" transform="translate(32,8)"/>
<path d="M0 0 C0.99 0.33 1.98 0.66 3 1 C1.93359375 3.48828125 1.93359375 3.48828125 0.8671875 5.9765625 C0.58101562 6.64429688 0.29484375 7.31203125 0 8 C-0.5625 9.3125 -1.125 10.625 -1.6875 11.9375 C-2.120625 12.948125 -2.55375 13.95875 -3 15 C-3.33 15 -3.66 15 -4 15 C-4.63019694 5.98468271 -4.63019694 5.98468271 -2 1.875 C-1.34 1.25625 -0.68 0.6375 0 0 Z " fill="#FA3739" transform="translate(25,9)"/>
<path d="M0 0 C1.76923828 0.04060547 1.76923828 0.04060547 3.57421875 0.08203125 C4.47785156 0.11683594 5.38148437 0.15164063 6.3125 0.1875 C6.3125 0.5175 6.3125 0.8475 6.3125 1.1875 C5.29929687 1.36925781 5.29929687 1.36925781 4.265625 1.5546875 C3.37359375 1.72226563 2.4815625 1.88984375 1.5625 2.0625 C0.23992188 2.30613281 0.23992188 2.30613281 -1.109375 2.5546875 C-3.55697744 3.15546264 -5.49349857 3.96747117 -7.6875 5.1875 C-8.3475 4.5275 -9.0075 3.8675 -9.6875 3.1875 C-6.99455929 -0.5165087 -4.35133403 -0.12924755 0 0 Z " fill="#FD242C" transform="translate(28.6875,2.8125)"/>
<path d="M0 0 C2.4375 0.6875 2.4375 0.6875 5 2 C5.8125 4.625 5.8125 4.625 6 7 C3.5625 6.3125 3.5625 6.3125 1 5 C0.1875 2.375 0.1875 2.375 0 0 Z " fill="#FB292B" transform="translate(32,8)"/>
<path d="M0 0 C0.99 0 1.98 0 3 0 C3 1.65 3 3.3 3 5 C2.01 5 1.02 5 0 5 C-0.33 5.99 -0.66 6.98 -1 8 C-1.33 6.02 -1.66 4.04 -2 2 C-1.34 2 -0.68 2 0 2 C0 1.34 0 0.68 0 0 Z " fill="#FA9EA1" transform="translate(36,22)"/>
<path d="M0 0 C3.63 0.33 7.26 0.66 11 1 C10.67 1.66 10.34 2.32 10 3 C6.7 3 3.4 3 0 3 C0 2.01 0 1.02 0 0 Z " fill="#FE1C21" transform="translate(24,34)"/>
<path d="M0 0 C0.66 0.33 1.32 0.66 2 1 C2.625 4.0625 2.625 4.0625 3 7 C1.35 7 -0.3 7 -2 7 C-1.34 4.69 -0.68 2.38 0 0 Z " fill="#FA3F44" transform="translate(29,12)"/>
</svg>
