<svg version="1.1" id="Layer_1" xmlns="http://www.w3.org/2000/svg" xmlns:xlink="http://www.w3.org/1999/xlink" x="0px" y="0px"
	 width="100%" viewBox="0 0 1289 676" enable-background="new 0 0 1289 676" xml:space="preserve">
<path fill="#FFFFFF" opacity="1.000000" stroke="none" 
	d="
M790.000000,677.000000 
	C526.700073,677.000000 263.900177,677.000000 1.050124,677.000000 
	C1.050124,451.728729 1.050124,226.457474 1.050124,1.093096 
	C430.549957,1.093096 860.099915,1.093096 1289.824951,1.093096 
	C1289.824951,226.333221 1289.824951,451.666595 1289.824951,677.000000 
	C1123.457397,677.000000 956.978699,677.000000 790.000000,677.000000 
M382.303741,383.165314 
	C382.904297,382.793701 383.504883,382.422089 384.824158,381.991669 
	C393.520966,377.648438 401.944550,372.603302 410.965118,369.091827 
	C439.564758,357.958740 469.722229,353.765961 499.942078,349.762024 
	C505.661530,349.004211 505.599945,351.408020 504.910522,354.799347 
	C502.676849,365.787140 498.810333,376.276489 490.862610,384.395050 
	C485.484863,389.888489 478.978760,394.277252 473.173706,399.000366 
	C488.346191,403.670013 503.127441,400.910370 517.623901,392.013397 
	C518.230591,391.614960 518.837280,391.216553 519.653442,390.676208 
	C519.653442,390.676208 519.807739,390.475739 520.268555,390.186493 
	C520.995056,389.728424 521.721558,389.270355 522.653564,388.671387 
	C522.653564,388.671387 522.807739,388.475739 523.268555,388.186493 
	C523.995056,387.728424 524.721558,387.270355 525.666321,386.665192 
	C525.666321,386.665192 525.815857,386.448578 526.292236,386.123749 
	C527.342957,385.353973 528.393677,384.584198 529.672058,383.667053 
	C529.672058,383.667053 529.822998,383.441650 530.322510,383.099915 
	C536.769897,376.344360 543.630249,369.931305 549.576904,362.760529 
	C561.210938,348.731689 570.095276,332.916229 575.798218,315.648895 
	C579.277283,305.115204 577.163086,294.001404 574.627808,283.484222 
	C567.949280,255.779892 556.715271,229.962448 541.063965,206.072235 
	C535.769409,197.990616 529.958618,190.486649 522.611450,184.530212 
	C521.817627,189.964188 521.328491,195.193665 520.259949,200.301941 
	C515.677368,222.209015 502.983459,239.563416 487.989838,255.253052 
	C479.416779,264.224152 470.053558,272.630035 460.149384,280.101807 
	C435.425293,298.753845 410.157593,316.684174 385.169464,334.987946 
	C369.842041,346.215363 355.755219,358.706024 344.902466,374.547821 
	C335.422455,388.385773 330.450989,403.407562 332.050812,420.275269 
	C332.382416,423.771149 333.345581,427.207123 333.872375,429.922058 
	C345.535736,417.739716 356.987305,405.778595 368.670044,393.670441 
	C368.670044,393.670441 368.821777,393.442352 369.320282,393.101135 
	C371.026733,391.673065 372.733215,390.244995 374.664703,388.670471 
	C374.664703,388.670471 374.815826,388.448547 375.292236,388.123688 
	C376.342926,387.353912 377.393616,386.584167 378.652771,385.673828 
	C378.652771,385.673828 378.807648,385.475739 379.268433,385.186554 
	C379.994995,384.728485 380.721527,384.270416 381.667236,383.669861 
	C381.667236,383.669861 381.822449,383.459534 382.303741,383.165314 
M536.218079,438.015808 
	C535.135864,438.160400 534.053650,438.304993 532.971436,438.449585 
	C532.936462,438.805908 532.901550,439.162231 532.866577,439.518555 
	C534.230347,440.050659 535.594177,440.582764 537.299988,441.792664 
	C538.199890,442.940308 539.808960,444.042480 539.886047,445.242920 
	C540.433044,453.769348 540.746826,462.313782 540.972473,470.856750 
	C541.129028,476.783813 540.972595,482.694702 533.619324,485.833344 
	C543.742859,485.833344 552.871216,485.833344 562.920471,485.985077 
	C566.861633,485.985077 570.802734,485.985077 574.719482,485.985077 
	C574.719482,481.465759 574.719482,477.472900 574.719482,473.480072 
	C572.440002,479.672272 567.730652,482.963257 561.180298,485.015381 
	C556.555908,485.341461 551.661926,483.637146 550.635559,479.692902 
	C549.194946,474.156952 550.125671,468.003876 550.799805,462.018341 
	C554.108215,463.938446 557.416687,465.858521 560.583618,467.696503 
	C560.583618,463.737732 560.583618,458.604309 560.583618,453.470886 
	C558.890076,458.808289 555.223938,460.685669 549.231750,459.712799 
	C549.168518,453.180145 549.105347,446.647491 549.921448,440.010376 
	C556.967041,440.770233 564.727600,439.419250 570.160645,446.794098 
	C570.775757,444.289703 571.341248,441.664032 570.533997,439.566711 
	C570.138184,438.538483 567.203308,438.115875 565.401062,438.070190 
	C559.938171,437.931732 554.467346,438.111084 548.088989,438.015137 
	C544.392822,438.065643 540.696594,438.116150 536.218079,438.015808 
M483.158417,147.626465 
	C483.610046,147.681961 484.061646,147.737473 484.513306,147.792953 
	C484.249664,147.318405 483.986023,146.843872 483.273529,145.849686 
	C467.996918,134.568741 451.283966,126.009216 433.710175,118.869774 
	C409.935608,109.211281 385.152924,103.673172 359.740204,102.240479 
	C331.937103,100.673027 304.218903,102.061165 277.046021,109.849068 
	C257.069336,115.574501 237.994110,123.307289 220.120087,133.621292 
	C196.539536,147.228210 176.195541,164.903183 158.599457,185.788834 
	C147.401001,199.080795 137.388046,213.185349 129.892517,228.778763 
	C123.656265,241.752441 118.469917,255.295181 113.707352,268.897095 
	C107.298317,287.201385 105.130783,306.396484 104.102478,325.665283 
	C103.779030,331.726074 104.367966,337.885651 105.060219,343.940430 
	C106.656242,357.900055 107.751526,371.990143 110.547058,385.722534 
	C114.883873,407.026093 123.344276,426.902649 134.270828,445.745728 
	C147.491165,468.544464 165.077637,487.593201 185.080551,504.381683 
	C201.612503,518.256958 220.083908,529.335083 239.757645,538.268005 
	C247.087936,541.596375 254.654709,544.403931 263.385406,547.968079 
	C262.115814,545.593079 261.572021,544.530945 260.988525,543.491089 
	C254.318787,531.604919 246.865723,520.083862 241.131485,507.762726 
	C229.385544,482.524261 224.604446,455.965668 227.854355,427.995728 
	C229.495941,413.867737 233.573380,400.627258 239.606873,387.973358 
	C249.893860,366.398804 265.353821,349.113495 284.037872,334.255615 
	C307.180389,315.852325 333.142303,302.960083 360.917267,293.744873 
	C381.443909,286.934540 401.675690,279.723022 420.890137,269.670593 
	C442.409851,258.412140 460.595825,243.202682 475.836945,224.480392 
	C480.877777,218.288177 482.409027,210.719177 480.252533,202.755600 
	C477.870941,193.960861 460.099121,189.758041 450.784302,195.628418 
	C444.759155,199.425583 438.567322,203.134033 432.040283,205.922836 
	C418.080383,211.887421 405.311737,219.533539 394.406433,230.128235 
	C388.073212,236.281021 381.950043,242.650330 375.598480,248.783539 
	C374.673187,249.677048 372.178253,250.536224 371.821136,250.139771 
	C370.562805,248.742935 369.563843,246.865005 369.186951,245.022232 
	C368.987488,244.046844 370.383026,242.811600 370.875061,241.618057 
	C375.561432,230.251083 380.264465,218.889816 384.743469,207.441132 
	C385.048401,206.661728 383.875916,204.666794 382.899292,204.128494 
	C377.158234,200.964035 375.686005,197.328735 377.719910,190.701126 
	C382.317719,175.718933 391.145691,163.482956 402.532715,153.031937 
	C417.523590,139.273270 435.142303,134.071594 455.063843,138.651901 
	C464.499573,140.821365 473.649414,144.234070 483.158417,147.626465 
M1052.027466,467.463135 
	C1053.083496,466.558777 1054.139526,465.654419 1054.436157,465.400421 
	C1059.304810,470.586761 1063.063599,476.308472 1068.298706,479.843933 
	C1083.779419,490.298706 1101.040649,490.333099 1118.231323,485.206177 
	C1143.993042,477.523102 1157.887573,446.380463 1147.230835,418.659790 
	C1142.634399,406.703308 1137.674316,394.873444 1133.532715,382.762726 
	C1132.180054,378.807861 1132.070923,373.996613 1132.828857,369.838684 
	C1134.535889,360.471375 1141.662842,355.650116 1150.237915,354.246674 
	C1159.807617,352.680481 1169.071655,354.673981 1175.368896,363.102692 
	C1176.733032,364.928436 1176.559570,367.903076 1177.371704,371.616943 
	C1169.113525,366.521454 1165.275757,367.256439 1162.924194,372.549835 
	C1161.007446,376.864136 1162.277344,380.630066 1165.097412,383.291931 
	C1168.271606,386.287933 1172.703003,387.069183 1177.075806,385.401947 
	C1186.101074,381.960724 1188.194092,374.154236 1185.114624,364.937836 
	C1181.272095,353.438293 1172.212036,347.374176 1159.567505,347.130585 
	C1142.963867,346.810669 1128.735352,352.719482 1118.975830,366.685181 
	C1112.111694,376.507599 1108.985229,387.549561 1111.913086,399.604248 
	C1115.359131,413.792664 1118.677124,428.025360 1122.658936,442.066376 
	C1126.037109,453.978760 1125.133301,464.693268 1115.875000,473.531860 
	C1107.085327,481.923157 1096.240234,483.787140 1084.863647,480.887817 
	C1069.698364,477.022919 1059.534668,467.626007 1059.014526,450.896362 
	C1058.842041,445.349152 1061.348511,441.398010 1067.533325,438.330170 
	C1067.714844,441.911682 1067.712280,444.741241 1068.051147,447.529266 
	C1068.276733,449.384613 1068.514648,451.539276 1069.570557,452.938477 
	C1073.254028,457.819061 1079.484741,457.713501 1084.273071,454.165588 
	C1088.294189,451.186188 1089.476074,443.527008 1086.748413,439.339050 
	C1082.811523,433.294464 1070.777832,429.903961 1064.101440,432.958252 
	C1055.786377,436.762207 1052.173706,444.580902 1052.942505,456.648163 
	C1053.027954,457.989594 1052.590576,460.048645 1051.660156,460.665588 
	C1041.287598,467.543610 1030.770142,474.203247 1020.804504,480.592987 
	C1016.255432,477.745880 1014.873352,474.813293 1016.507019,471.014435 
	C1020.932434,460.724060 1025.341675,450.423431 1029.989990,440.233032 
	C1037.282837,424.244751 1044.846924,408.380249 1052.137329,392.390869 
	C1056.051147,383.807129 1056.825317,374.561829 1055.799561,365.385345 
	C1055.175781,359.803253 1052.716797,354.674377 1047.817749,350.888397 
	C1038.222290,343.473175 1028.120361,345.896942 1017.870361,348.567657 
	C1006.938232,351.416168 998.484741,358.324310 990.106262,365.382263 
	C986.125244,368.735718 982.084961,372.018890 978.071594,375.333923 
	C979.852783,368.355743 982.618713,362.338379 984.973267,356.164093 
	C987.031128,350.767853 986.393250,349.902313 980.857971,350.035645 
	C972.759521,350.230621 964.668884,350.728943 956.571167,350.975433 
	C952.076294,351.112274 947.560730,350.807800 943.082703,351.114258 
	C941.684937,351.209900 940.379333,352.652710 939.031494,353.478790 
	C940.397583,354.651367 941.601257,356.429474 943.169067,356.850037 
	C945.345581,357.433838 947.795349,356.999329 950.128174,356.999878 
	C952.644470,357.000458 955.160828,357.000000 958.396179,357.000000 
	C938.834534,399.797150 919.869324,441.289459 900.422607,483.835266 
	C905.085205,484.337982 908.108337,484.798126 911.147095,484.954651 
	C914.324219,485.118256 917.537354,484.757568 920.697205,485.042389 
	C925.709656,485.494202 929.805176,483.241180 931.752197,478.606079 
	C933.889771,473.517303 936.034607,468.430756 938.251221,463.376099 
	C943.208374,452.072052 948.148560,440.759766 953.216431,429.505249 
	C957.480408,420.036011 961.385864,410.351013 966.399048,401.286346 
	C973.796692,387.910370 984.237610,376.896606 996.172180,367.424866 
	C1003.183167,361.860779 1010.729736,357.059296 1019.724548,355.118195 
	C1028.468384,353.231171 1033.728271,358.589844 1031.410645,367.154175 
	C1030.395386,370.906189 1029.687988,374.798370 1028.191406,378.353516 
	C1021.766785,393.615814 1015.279785,408.857208 1008.472046,423.951294 
	C1001.739380,438.878845 992.577087,452.757507 989.355713,469.178375 
	C987.964600,476.269714 989.827576,487.508942 998.027466,489.312073 
	C1002.610107,490.319733 1007.797607,490.736176 1012.280334,489.644379 
	C1027.222534,486.005127 1040.700195,479.286407 1052.027466,467.463135 
M667.553711,354.946075 
	C667.835266,354.010193 668.007080,353.023376 668.414551,352.145905 
	C677.665649,332.223328 686.951233,312.316772 696.210510,292.398010 
	C700.256531,283.694122 704.312622,274.994141 708.256714,266.243988 
	C710.092957,262.170288 708.670410,259.859344 704.692566,260.012756 
	C695.940369,260.350311 687.189697,260.756134 678.434326,260.971130 
	C672.335938,261.120911 666.230896,261.000000 660.210266,261.000000 
	C660.210266,263.309662 660.210266,264.926331 660.210266,266.960388 
	C666.159302,266.960388 671.918640,266.960388 678.181946,266.960388 
	C677.576294,268.514465 677.229614,269.551880 676.777527,270.541138 
	C671.639404,281.782318 666.406738,292.980957 661.351379,304.259125 
	C650.184570,329.171814 639.153320,354.145325 627.975464,379.053040 
	C617.193848,403.077759 606.269226,427.038208 595.466431,451.053467 
	C591.533386,459.797058 587.803162,468.631683 583.919006,477.397583 
	C581.124756,483.703918 581.858826,484.979706 588.529663,484.997284 
	C593.696167,485.010895 598.866516,484.878662 604.028015,485.038452 
	C608.133850,485.165588 610.942688,483.572479 612.642639,479.822479 
	C614.926758,474.783661 617.285461,469.778046 619.657837,464.779907 
	C626.290955,450.805237 633.335388,437.010315 639.500366,422.832611 
	C647.910645,403.490967 658.922913,386.044556 674.687073,371.933441 
	C683.613770,363.942810 693.732910,357.775726 705.672607,355.139435 
	C712.193787,353.699585 716.264587,356.609222 715.887390,363.153320 
	C715.657043,367.150330 714.964294,371.366394 713.371704,374.998444 
	C704.494629,395.242767 695.134521,415.275177 686.242310,435.513031 
	C682.010193,445.144836 677.817932,454.882141 674.805237,464.930695 
	C672.805176,471.601654 672.405334,479.170166 676.997986,485.322937 
	C682.907898,493.240631 691.153076,491.202728 699.104614,489.442963 
	C715.637817,485.783966 728.536499,476.309235 739.520386,463.894623 
	C740.512146,462.773743 740.688965,460.931885 741.244263,459.424896 
	C740.845032,459.117798 740.445801,458.810699 740.046631,458.503601 
	C728.073547,465.988342 716.100464,473.473083 704.459412,480.750275 
	C699.175293,475.720795 698.959412,474.846497 702.003601,468.112579 
	C711.917542,446.181915 721.850891,424.259338 731.927063,402.402954 
	C737.190430,390.986023 741.589355,379.456055 740.009033,366.521912 
	C739.092773,359.022461 736.342285,352.697723 729.229431,349.041626 
	C721.655334,345.148468 713.762329,345.764771 705.870239,347.599884 
	C692.140625,350.792389 680.889832,358.360657 670.679504,367.772644 
	C666.486816,371.637451 662.048157,375.235321 657.721375,378.954681 
	C657.408386,378.668427 657.095459,378.382172 656.782471,378.095917 
	C660.214050,370.583038 663.645691,363.070190 667.553711,354.946075 
M862.248840,477.931519 
	C857.603455,477.414551 856.152771,475.578217 857.999634,471.237793 
	C867.663452,448.526062 877.394104,425.840454 887.378296,403.268158 
	C894.547302,387.060089 902.199524,371.066162 909.491028,354.911255 
	C910.285156,353.151733 910.117310,350.958069 910.395691,348.965790 
	C908.171448,348.673279 905.942017,348.104492 903.723999,348.145905 
	C899.127991,348.231598 894.461365,349.270081 889.969666,348.721680 
	C886.300293,348.273651 884.413330,348.926453 882.887939,352.254547 
	C880.693115,357.042908 878.067627,361.633850 875.242676,367.042938 
	C873.794800,364.475555 872.874878,362.980377 872.084473,361.419647 
	C868.188416,353.726959 861.979309,348.552917 853.455627,348.239960 
	C846.548279,347.986359 839.348389,349.058289 832.653625,350.903870 
	C812.822144,356.370880 797.299927,368.487274 783.719849,383.637909 
	C772.804871,395.815155 763.916199,409.086914 757.897949,424.322754 
	C753.844971,434.583435 750.494690,445.175659 751.194336,456.138611 
	C752.507446,476.713623 771.934937,487.255615 787.035156,487.915222 
	C800.246521,488.492279 811.989075,483.898926 822.486206,476.002930 
	C825.483826,473.748077 828.452942,471.455353 832.001160,468.748108 
	C832.001160,472.002014 831.906616,474.171936 832.018982,476.331085 
	C832.345459,482.604065 835.802124,486.316376 841.838318,488.064392 
	C848.902283,490.110046 855.458252,488.130859 861.863220,485.889008 
	C876.466370,480.777710 888.812988,472.369873 898.871582,458.903778 
	C896.871704,458.799713 895.648132,458.382172 894.763550,458.759430 
	C892.530212,459.711884 890.404480,460.947174 888.315430,462.202087 
	C879.843323,467.291626 871.401306,472.431183 862.248840,477.931519 
M792.326599,574.000000 
	C801.354858,573.900696 808.740723,570.780701 813.726196,562.817932 
	C819.026733,554.351929 820.729004,545.399536 819.079529,535.475281 
	C816.233032,518.348877 805.948975,507.035675 790.174133,505.334839 
	C775.773376,503.782166 761.073303,505.005737 745.216125,505.005737 
	C746.866333,506.144226 747.423462,506.824646 748.075928,506.933319 
	C755.314453,508.139038 757.133423,512.405579 757.042419,519.669739 
	C756.888062,531.998413 756.645264,544.344299 757.123779,556.656311 
	C757.446655,564.963989 755.649536,571.153137 746.638733,573.189758 
	C746.529785,573.214294 746.522156,573.687256 746.457031,574.000000 
	C761.455750,574.000000 776.410645,574.000000 792.326599,574.000000 
M1061.449585,572.081238 
	C1065.108887,569.411255 1069.516602,567.349792 1072.280273,563.951416 
	C1079.172729,555.475708 1082.877319,545.912598 1081.123169,534.420227 
	C1078.637573,518.135681 1065.110474,504.822662 1048.515503,503.114166 
	C1026.018677,500.798096 1006.079834,518.252563 1006.782104,541.533325 
	C1007.216431,555.929688 1017.408325,569.653625 1030.451294,573.984131 
	C1040.752930,577.404602 1050.911743,576.847107 1061.449585,572.081238 
M511.000000,535.774597 
	C511.000000,537.771667 511.050629,539.770142 510.991730,541.765503 
	C510.643402,553.568237 516.099426,562.885864 525.138245,569.378479 
	C541.920776,581.433411 566.296143,577.465210 578.498840,560.928894 
	C588.196167,547.787659 587.551331,529.989990 578.082031,517.860718 
	C568.262207,505.282532 554.765259,499.944305 538.992493,504.170105 
	C523.467407,508.329498 513.843811,518.706360 511.000000,535.774597 
M1116.968750,516.450195 
	C1108.785889,503.325134 1106.133789,504.160889 1086.839233,505.757629 
	C1087.628174,506.257965 1088.004272,506.635010 1088.450684,506.759094 
	C1096.437744,508.979523 1097.995605,510.952484 1097.998657,518.973938 
	C1098.003418,531.636780 1097.804321,544.303833 1098.072876,556.960999 
	C1098.236084,564.657532 1097.796753,571.609680 1088.626587,573.886230 
	C1096.253662,573.886230 1103.880615,573.886230 1111.507690,573.886230 
	C1104.256836,573.342957 1101.283447,568.484558 1101.126831,562.237732 
	C1100.753174,547.334595 1101.006470,532.415771 1101.006470,516.378906 
	C1104.049438,519.889099 1106.475220,522.463623 1108.651001,525.234314 
	C1120.503784,540.329224 1132.249146,555.508972 1144.163574,570.554810 
	C1145.732056,572.535461 1148.057617,573.916382 1151.000000,576.387817 
	C1151.000000,556.025330 1150.985352,537.373657 1151.025757,518.722168 
	C1151.029297,517.112854 1151.481934,515.509521 1151.579590,513.894592 
	C1151.917358,508.310333 1156.741333,507.338715 1161.330444,505.273499 
	C1152.818604,505.273499 1145.213135,505.273499 1139.246216,505.273499 
	C1141.370239,507.383881 1146.279785,509.942535 1146.578003,512.957397 
	C1147.917358,526.495728 1147.946045,540.163696 1148.447510,553.784851 
	C1147.890747,553.958435 1147.334106,554.131958 1146.777344,554.305542 
	C1144.512695,551.485901 1142.217529,548.690308 1139.989258,545.842224 
	C1132.470825,536.232544 1124.976318,526.604187 1116.968750,516.450195 
M721.293640,506.041534 
	C727.221558,508.503754 728.996643,511.250122 728.999023,517.993103 
	C729.002686,528.489441 729.012573,538.985779 728.982239,549.481995 
	C728.978821,550.658325 728.732239,551.833923 728.534851,553.568542 
	C727.420105,552.693115 726.818420,552.382629 726.438293,551.898315 
	C718.607849,541.920898 710.791443,531.932434 702.997314,521.926575 
	C699.414368,517.326965 696.501282,511.976440 692.188110,508.227936 
	C685.573303,502.479248 677.210693,505.647064 669.146423,505.620331 
	C680.540833,507.565460 680.073242,515.904785 680.019714,524.114807 
	C679.942566,535.943542 680.013367,547.773071 679.995300,559.602295 
	C679.983215,567.519470 676.938293,571.589233 668.966736,573.828308 
	C677.174622,573.828308 684.802002,573.828308 692.429382,573.828308 
	C687.394470,572.433716 683.176086,569.967834 683.089111,564.277527 
	C682.851074,548.695923 683.007141,533.108276 683.007141,516.207031 
	C687.303772,521.753296 690.784424,526.343872 694.367432,530.853149 
	C705.213989,544.503967 716.075317,558.143372 727.008179,571.725098 
	C728.151794,573.145813 729.809570,574.152771 732.000000,576.003235 
	C732.000000,557.578979 731.619263,540.578430 732.175964,523.608704 
	C732.419434,516.186584 731.291870,506.984741 742.853882,505.313751 
	C738.879761,505.000000 735.382385,504.992493 731.884949,505.002075 
	C727.887329,505.013031 723.889771,505.039154 719.892212,505.058716 
	C719.926270,505.349609 719.930786,505.649597 720.015747,505.924774 
	C720.036011,505.990387 720.324890,505.973053 721.293640,506.041534 
M614.799561,511.722412 
	C617.736389,509.655334 620.673218,507.588226 623.548035,505.564789 
	C612.933533,505.564789 602.008057,505.564789 591.082642,505.564789 
	C601.125122,509.312134 601.242737,512.851929 601.064514,520.688293 
	C600.810669,531.848145 600.941589,543.018433 601.016602,554.183594 
	C601.090088,565.126099 605.013916,572.122253 614.236450,574.515503 
	C624.762329,577.246887 635.668335,577.707458 645.844116,572.568237 
	C651.799988,569.560303 655.065063,564.556091 655.019287,557.610413 
	C654.946838,546.611938 655.011230,535.612549 654.996155,524.613586 
	C654.985229,516.612854 654.304688,508.278534 664.865234,505.419861 
	C657.079102,505.419861 649.292969,505.419861 640.616699,505.419861 
	C641.904419,506.277649 642.377136,506.753448 642.945862,506.947113 
	C651.039368,509.703064 651.998901,511.019653 651.999695,519.541138 
	C652.000732,530.706787 652.000000,541.872375 652.000000,553.038025 
	C652.000000,565.228149 650.605225,567.391052 639.332886,572.132019 
	C637.433716,572.930786 635.384705,573.619812 633.352905,573.813354 
	C625.048157,574.604370 615.395142,570.280884 614.098572,561.315369 
	C613.276489,555.630737 612.997925,549.814148 613.073364,544.064636 
	C613.212280,533.479126 613.791626,522.899414 614.799561,511.722412 
M487.630249,507.995026 
	C497.861786,507.196838 502.101959,514.479431 505.796265,522.498352 
	C506.266418,522.253967 506.736603,522.009583 507.206787,521.765198 
	C506.754944,516.241943 506.303070,510.718750 505.876495,505.504669 
	C487.948975,505.504669 470.515503,505.504669 453.082031,505.504669 
	C462.754547,508.116089 463.204193,515.372742 463.053772,523.271179 
	C462.841370,534.426453 462.701202,545.599548 463.101624,556.744446 
	C463.383759,564.597351 462.059418,570.990234 453.577209,573.793335 
	C463.882294,573.793335 474.187378,573.793335 484.492432,573.793335 
	C483.779114,572.713318 482.638123,572.569885 481.963074,571.932739 
	C479.564545,569.669006 475.594971,567.407410 475.341705,564.837463 
	C474.502808,556.324097 475.025024,547.676636 475.025024,539.148499 
	C485.778320,538.201233 491.432526,543.004395 493.546875,552.876099 
	C493.546875,543.403442 493.546875,533.930725 493.546875,523.113037 
	C489.473389,531.628479 485.067047,537.851562 475.191956,535.625793 
	C475.191956,526.500183 475.191956,517.403015 475.191956,507.246643 
	C479.197571,507.490082 482.968506,507.719269 487.630249,507.995026 
M867.956970,522.705627 
	C865.971191,518.138062 864.130615,513.498535 861.920959,509.041931 
	C861.147278,507.481384 859.465820,506.370880 858.198914,505.054871 
	C856.916443,506.423126 855.075684,507.572357 854.439392,509.194122 
	C849.163574,522.639893 844.434570,536.308167 838.877197,549.632629 
	C835.106812,558.672668 833.959534,569.775818 820.992798,573.716003 
	C830.233887,573.716003 837.872375,573.716003 845.929565,573.716003 
	C836.147400,567.226074 836.153381,567.228455 840.712341,555.665466 
	C841.005798,554.921265 841.016602,554.067139 841.298523,553.316650 
	C842.926147,548.984253 845.334656,545.973022 850.721069,546.927429 
	C853.141357,547.356201 855.755737,547.332886 858.185730,546.931641 
	C863.464172,546.060059 866.088379,548.739868 867.673096,553.227783 
	C868.955322,556.859009 870.701782,560.397888 871.395142,564.134949 
	C871.736084,565.972717 870.655640,568.630432 869.312317,570.073975 
	C867.857788,571.636963 865.347900,572.217651 862.484741,573.627380 
	C874.168335,573.627380 884.831360,573.627380 896.207703,573.627380 
	C887.476624,569.117249 887.170166,569.251770 883.491821,560.873779 
	C878.071655,548.528320 873.139832,535.968506 867.956970,522.705627 
M914.473633,573.098511 
	C917.551392,573.398987 920.625549,573.904724 923.707642,573.958923 
	C930.986023,574.086914 938.268188,574.000000 945.548828,574.000000 
	C945.779724,573.593689 946.010559,573.187378 946.241394,572.781128 
	C936.152283,571.141418 935.765259,564.152344 935.932373,556.463867 
	C936.189392,544.644104 936.000000,532.814636 936.000000,520.989319 
	C936.000000,516.376404 936.000000,511.763458 936.000000,506.560730 
	C939.016479,507.118134 941.398804,507.968475 943.764771,507.924805 
	C954.151855,507.733124 960.705994,512.293030 963.073059,522.594299 
	C963.225098,523.255981 964.317810,523.701538 965.057556,524.318176 
	C965.057556,517.514709 965.057556,511.360596 965.057556,505.281067 
	C941.660767,505.281067 918.921997,505.281067 896.035400,505.281067 
	C895.611145,511.631134 895.204956,517.710876 894.798767,523.790527 
	C895.343933,523.926941 895.889099,524.063354 896.434204,524.199768 
	C896.963440,522.827454 897.532471,521.469055 898.015076,520.080566 
	C900.096619,514.091248 903.808960,509.738708 910.221130,508.338684 
	C913.235168,507.680603 916.327148,507.270569 919.405518,507.047058 
	C922.465698,506.824890 924.100952,508.032867 924.067505,511.597412 
	C923.914062,527.918274 924.008667,544.241333 923.995972,560.563660 
	C923.990479,567.612061 921.905701,570.354736 914.473633,573.098511 
M480.464508,441.059784 
	C481.309662,443.256714 482.808594,445.431488 482.883942,447.654510 
	C483.171356,456.135162 482.806030,464.637390 483.068634,473.119629 
	C483.241852,478.714661 483.254242,483.876099 476.586426,485.689636 
	C483.868073,485.689636 491.149750,485.689636 497.399628,485.689636 
	C495.776489,483.730225 492.676331,481.654633 492.259247,479.134949 
	C491.409058,473.998383 492.004730,468.622498 492.004730,463.000000 
	C498.080780,463.000000 503.703918,462.999878 509.327087,463.000092 
	C510.159485,463.000122 511.078796,462.775543 511.804077,463.054596 
	C512.920776,463.484344 514.749695,464.194305 514.804504,464.899719 
	C515.113159,468.871368 514.700684,472.903595 515.073669,476.864410 
	C515.503784,481.432251 513.070435,483.904510 509.073120,485.632019 
	C516.546326,485.632019 523.491333,485.632019 531.216248,485.632019 
	C522.419250,481.568665 524.067200,480.843170 524.017273,474.566803 
	C523.948364,465.910461 524.115967,457.251007 523.951782,448.597229 
	C523.868042,444.184387 524.978333,440.748230 530.125916,439.331421 
	C522.484375,439.331421 515.546692,439.331421 507.614624,439.331421 
	C515.556458,441.929779 515.694031,442.430786 514.518616,459.757263 
	C507.127350,459.757263 499.730865,459.757263 491.603363,459.757263 
	C493.955170,452.590759 487.016663,443.147125 499.483521,439.143127 
	C491.428650,439.143127 484.505371,439.143127 477.032104,439.143127 
	C478.202362,439.951202 478.933929,440.456329 480.464508,441.059784 
M978.000000,534.500244 
	C978.000000,542.488708 977.703979,550.491394 978.087219,558.461426 
	C978.437012,565.735657 976.217346,570.837158 968.764221,572.819580 
	C968.615173,572.859192 968.594055,573.379883 968.542786,573.567993 
	C978.859924,573.567993 989.199585,573.567993 999.539246,573.567993 
	C990.589233,571.124634 989.647339,564.711182 989.891052,556.936462 
	C990.292480,544.134216 989.987183,531.310303 990.017517,518.495544 
	C990.020996,517.029541 990.189026,515.552124 990.413696,514.100525 
	C991.247925,508.708801 996.044312,507.875244 999.886108,505.488953 
	C989.292908,505.488953 978.699768,505.488953 968.106567,505.488953 
	C974.390015,507.541199 978.316467,510.938141 978.039246,518.024414 
	C977.837769,523.175720 978.000000,528.341309 978.000000,534.500244 
M446.000000,468.480347 
	C445.097992,474.566071 448.975586,482.116821 441.120178,485.594757 
	C447.602112,485.594757 454.549774,485.594757 462.782043,485.594757 
	C456.755432,483.521576 454.482605,480.625824 454.877014,475.203156 
	C455.383118,468.244751 455.000000,461.221680 455.000000,454.226471 
	C455.000000,449.511108 455.000000,444.795776 455.000000,440.148804 
	C463.858643,440.957855 471.985870,441.800873 474.253998,452.432648 
	C474.974396,448.310516 475.314301,444.707397 474.792603,441.233734 
	C474.606506,439.994598 472.407440,438.280762 470.998169,438.147400 
	C466.706207,437.741302 462.351349,438.000000 458.020966,438.000000 
	C447.754700,437.999969 437.488464,438.000000 427.335999,438.000000 
	C426.926941,442.894257 426.565277,447.221436 426.099609,452.793152 
	C427.520752,450.778564 428.129059,449.451721 429.132568,448.579529 
	C432.326233,445.803802 435.335663,442.528076 439.035553,440.696472 
	C443.567596,438.452942 445.990143,440.510406 445.997314,445.501740 
	C446.007843,452.830048 446.000000,460.158386 446.000000,468.480347 
z"/>
<path fill="#25857A" opacity="1.000000" stroke="none" 
	d="
M482.928802,147.083511 
	C473.649414,144.234070 464.499573,140.821365 455.063843,138.651901 
	C435.142303,134.071594 417.523590,139.273270 402.532715,153.031937 
	C391.145691,163.482956 382.317719,175.718933 377.719910,190.701126 
	C375.686005,197.328735 377.158234,200.964035 382.899292,204.128494 
	C383.875916,204.666794 385.048401,206.661728 384.743469,207.441132 
	C380.264465,218.889816 375.561432,230.251083 370.875061,241.618057 
	C370.383026,242.811600 368.987488,244.046844 369.186951,245.022232 
	C369.563843,246.865005 370.562805,248.742935 371.821136,250.139771 
	C372.178253,250.536224 374.673187,249.677048 375.598480,248.783539 
	C381.950043,242.650330 388.073212,236.281021 394.406433,230.128235 
	C405.311737,219.533539 418.080383,211.887421 432.040283,205.922836 
	C438.567322,203.134033 444.759155,199.425583 450.784302,195.628418 
	C460.099121,189.758041 477.870941,193.960861 480.252533,202.755600 
	C482.409027,210.719177 480.877777,218.288177 475.836945,224.480392 
	C460.595825,243.202682 442.409851,258.412140 420.890137,269.670593 
	C401.675690,279.723022 381.443909,286.934540 360.917267,293.744873 
	C333.142303,302.960083 307.180389,315.852325 284.037872,334.255615 
	C265.353821,349.113495 249.893860,366.398804 239.606873,387.973358 
	C233.573380,400.627258 229.495941,413.867737 227.854355,427.995728 
	C224.604446,455.965668 229.385544,482.524261 241.131485,507.762726 
	C246.865723,520.083862 254.318787,531.604919 260.988525,543.491089 
	C261.572021,544.530945 262.115814,545.593079 263.385406,547.968079 
	C254.654709,544.403931 247.087936,541.596375 239.757645,538.268005 
	C220.083908,529.335083 201.612503,518.256958 185.080551,504.381683 
	C165.077637,487.593201 147.491165,468.544464 134.270828,445.745728 
	C123.344276,426.902649 114.883873,407.026093 110.547058,385.722534 
	C107.751526,371.990143 106.656242,357.900055 105.060219,343.940430 
	C104.367966,337.885651 103.779030,331.726074 104.102478,325.665283 
	C105.130783,306.396484 107.298317,287.201385 113.707352,268.897095 
	C118.469917,255.295181 123.656265,241.752441 129.892517,228.778763 
	C137.388046,213.185349 147.401001,199.080795 158.599457,185.788834 
	C176.195541,164.903183 196.539536,147.228210 220.120087,133.621292 
	C237.994110,123.307289 257.069336,115.574501 277.046021,109.849068 
	C304.218903,102.061165 331.937103,100.673027 359.740204,102.240479 
	C385.152924,103.673172 409.935608,109.211281 433.710175,118.869774 
	C451.283966,126.009216 467.996918,134.568741 483.288239,146.275482 
	C483.178223,146.828690 483.053528,146.956100 482.928802,147.083511 
M250.793045,270.940887 
	C269.365326,276.179749 286.439575,273.040527 300.444366,259.762390 
	C313.151398,247.714645 317.940765,232.276093 313.932037,214.930161 
	C308.643555,192.046417 289.285400,177.603607 266.874298,177.211960 
	C251.099930,176.936279 238.052444,183.856552 227.970428,196.431366 
	C207.093460,222.470215 220.620300,260.340393 250.793045,270.940887 
z"/>
<path fill="#25857A" opacity="1.000000" stroke="none" 
	d="
M517.041504,392.115479 
	C503.127441,400.910370 488.346191,403.670013 473.173706,399.000366 
	C478.978760,394.277252 485.484863,389.888489 490.862610,384.395050 
	C498.810333,376.276489 502.676849,365.787140 504.910522,354.799347 
	C505.599945,351.408020 505.661530,349.004211 499.942078,349.762024 
	C469.722229,353.765961 439.564758,357.958740 410.965118,369.091827 
	C401.944550,372.603302 393.520966,377.648438 384.145782,381.889893 
	C382.793365,381.794586 382.119354,381.801025 381.445312,381.807495 
	C381.571045,382.358185 381.696747,382.908844 381.822449,383.459534 
	C381.822449,383.459534 381.667236,383.669861 381.185303,383.504211 
	C380.071442,384.050934 379.439545,384.763336 378.807678,385.475739 
	C378.807648,385.475739 378.652771,385.673828 378.180298,385.504333 
	C375.280853,385.013947 373.596252,385.382599 374.815826,388.448547 
	C374.815826,388.448547 374.664703,388.670471 374.200592,388.505951 
	C370.317200,388.325714 368.072266,389.441467 368.821777,393.442352 
	C368.821777,393.442352 368.670044,393.670441 368.209656,393.507996 
	C366.676941,393.572327 365.240173,393.433807 364.589447,394.083099 
	C358.941284,399.718597 353.318756,405.389496 347.923279,411.265320 
	C343.883667,415.664551 340.190552,420.382019 335.560699,425.888367 
	C333.526001,408.602264 336.618530,393.943939 345.075317,380.385864 
	C354.812836,364.774445 367.950653,352.321106 382.462067,341.430450 
	C410.159760,320.643585 438.382751,300.557526 466.130859,279.836609 
	C480.134460,269.379425 492.504639,257.093170 502.979553,243.019562 
	C513.437195,228.969116 521.789307,213.912781 524.724792,195.376160 
	C526.510742,196.690750 528.053589,197.360046 528.914368,198.530823 
	C539.564636,213.016556 549.889709,227.772156 556.582886,244.568832 
	C561.002930,255.660858 564.540527,267.113647 568.249451,278.477966 
	C574.794067,298.530823 575.047485,317.804291 563.820862,336.928558 
	C554.922241,352.087189 545.448425,366.468353 532.340698,378.300201 
	C531.025818,379.487091 530.640015,381.703217 529.822998,383.441650 
	C529.822998,383.441650 529.672058,383.667053 529.189941,383.500916 
	C526.280762,383.013916 524.596375,383.382812 525.815857,386.448578 
	C525.815857,386.448578 525.666321,386.665192 525.184814,386.501862 
	C524.071472,387.050934 523.439575,387.763336 522.807739,388.475739 
	C522.807739,388.475739 522.653564,388.671387 522.178467,388.504944 
	C521.071472,389.050934 520.439575,389.763336 519.807739,390.475739 
	C519.807739,390.475739 519.653442,390.676208 519.232544,390.533447 
	C518.221558,390.965576 517.631531,391.540527 517.041504,392.115479 
z"/>
<path fill="#25857A" opacity="1.000000" stroke="none" 
	d="
M1051.776367,467.722595 
	C1040.700195,479.286407 1027.222534,486.005127 1012.280334,489.644379 
	C1007.797607,490.736176 1002.610107,490.319733 998.027466,489.312073 
	C989.827576,487.508942 987.964600,476.269714 989.355713,469.178375 
	C992.577087,452.757507 1001.739380,438.878845 1008.472046,423.951294 
	C1015.279785,408.857208 1021.766785,393.615814 1028.191406,378.353516 
	C1029.687988,374.798370 1030.395386,370.906189 1031.410645,367.154175 
	C1033.728271,358.589844 1028.468384,353.231171 1019.724548,355.118195 
	C1010.729736,357.059296 1003.183167,361.860779 996.172180,367.424866 
	C984.237610,376.896606 973.796692,387.910370 966.399048,401.286346 
	C961.385864,410.351013 957.480408,420.036011 953.216431,429.505249 
	C948.148560,440.759766 943.208374,452.072052 938.251221,463.376099 
	C936.034607,468.430756 933.889771,473.517303 931.752197,478.606079 
	C929.805176,483.241180 925.709656,485.494202 920.697205,485.042389 
	C917.537354,484.757568 914.324219,485.118256 911.147095,484.954651 
	C908.108337,484.798126 905.085205,484.337982 900.422607,483.835266 
	C919.869324,441.289459 938.834534,399.797150 958.396179,357.000000 
	C955.160828,357.000000 952.644470,357.000458 950.128174,356.999878 
	C947.795349,356.999329 945.345581,357.433838 943.169067,356.850037 
	C941.601257,356.429474 940.397583,354.651367 939.031494,353.478821 
	C940.379333,352.652710 941.684937,351.209900 943.082703,351.114258 
	C947.560730,350.807800 952.076294,351.112274 956.571167,350.975433 
	C964.668884,350.728943 972.759521,350.230621 980.857971,350.035645 
	C986.393250,349.902313 987.031128,350.767853 984.973267,356.164093 
	C982.618713,362.338379 979.852783,368.355743 978.071594,375.333923 
	C982.084961,372.018890 986.125244,368.735718 990.106262,365.382263 
	C998.484741,358.324310 1006.938232,351.416168 1017.870361,348.567657 
	C1028.120361,345.896942 1038.222290,343.473175 1047.817749,350.888397 
	C1052.716797,354.674377 1055.175781,359.803253 1055.799561,365.385345 
	C1056.825317,374.561829 1056.051147,383.807129 1052.137329,392.390869 
	C1044.846924,408.380249 1037.282837,424.244751 1029.989990,440.233032 
	C1025.341675,450.423431 1020.932434,460.724060 1016.507019,471.014435 
	C1014.873352,474.813293 1016.255432,477.745880 1020.804504,480.592987 
	C1030.770142,474.203247 1041.287598,467.543610 1051.660156,460.665588 
	C1052.590576,460.048645 1053.027954,457.989594 1052.942505,456.648163 
	C1052.173706,444.580902 1055.786377,436.762207 1064.101440,432.958252 
	C1070.777832,429.903961 1082.811523,433.294464 1086.748413,439.339050 
	C1089.476074,443.527008 1088.294189,451.186188 1084.273071,454.165588 
	C1079.484741,457.713501 1073.254028,457.819061 1069.570557,452.938477 
	C1068.514648,451.539276 1068.276733,449.384613 1068.051147,447.529266 
	C1067.712280,444.741241 1067.714844,441.911682 1067.533325,438.330170 
	C1061.348511,441.398010 1058.842041,445.349152 1059.014526,450.896362 
	C1059.534668,467.626007 1069.698364,477.022919 1084.863647,480.887817 
	C1096.240234,483.787140 1107.085327,481.923157 1115.875000,473.531860 
	C1125.133301,464.693268 1126.037109,453.978760 1122.658936,442.066376 
	C1118.677124,428.025360 1115.359131,413.792664 1111.913086,399.604248 
	C1108.985229,387.549561 1112.111694,376.507599 1118.975830,366.685181 
	C1128.735352,352.719482 1142.963867,346.810669 1159.567505,347.130585 
	C1172.212036,347.374176 1181.272095,353.438293 1185.114624,364.937836 
	C1188.194092,374.154236 1186.101074,381.960724 1177.075806,385.401947 
	C1172.703003,387.069183 1168.271606,386.287933 1165.097412,383.291931 
	C1162.277344,380.630066 1161.007446,376.864136 1162.924194,372.549835 
	C1165.275757,367.256439 1169.113525,366.521454 1177.371704,371.616943 
	C1176.559570,367.903076 1176.733032,364.928436 1175.368896,363.102692 
	C1169.071655,354.673981 1159.807617,352.680481 1150.237915,354.246674 
	C1141.662842,355.650116 1134.535889,360.471375 1132.828857,369.838684 
	C1132.070923,373.996613 1132.180054,378.807861 1133.532715,382.762726 
	C1137.674316,394.873444 1142.634399,406.703308 1147.230835,418.659790 
	C1157.887573,446.380463 1143.993042,477.523102 1118.231323,485.206177 
	C1101.040649,490.333099 1083.779419,490.298706 1068.298706,479.843933 
	C1063.063599,476.308472 1059.304810,470.586761 1054.436157,465.400421 
	C1054.139526,465.654419 1053.083496,466.558777 1051.776367,467.722595 
z"/>
<path fill="#25857A" opacity="1.000000" stroke="none" 
	d="
M667.315491,355.251709 
	C663.645691,363.070190 660.214050,370.583038 656.782471,378.095917 
	C657.095459,378.382172 657.408386,378.668427 657.721375,378.954681 
	C662.048157,375.235321 666.486816,371.637451 670.679504,367.772644 
	C680.889832,358.360657 692.140625,350.792389 705.870239,347.599884 
	C713.762329,345.764771 721.655334,345.148468 729.229431,349.041626 
	C736.342285,352.697723 739.092773,359.022461 740.009033,366.521912 
	C741.589355,379.456055 737.190430,390.986023 731.927063,402.402954 
	C721.850891,424.259338 711.917542,446.181915 702.003601,468.112579 
	C698.959412,474.846497 699.175293,475.720795 704.459412,480.750275 
	C716.100464,473.473083 728.073547,465.988342 740.046631,458.503601 
	C740.445801,458.810699 740.845032,459.117798 741.244263,459.424896 
	C740.688965,460.931885 740.512146,462.773743 739.520386,463.894623 
	C728.536499,476.309235 715.637817,485.783966 699.104614,489.442963 
	C691.153076,491.202728 682.907898,493.240631 676.997986,485.322937 
	C672.405334,479.170166 672.805176,471.601654 674.805237,464.930695 
	C677.817932,454.882141 682.010193,445.144836 686.242310,435.513031 
	C695.134521,415.275177 704.494629,395.242767 713.371704,374.998444 
	C714.964294,371.366394 715.657043,367.150330 715.887390,363.153320 
	C716.264587,356.609222 712.193787,353.699585 705.672607,355.139435 
	C693.732910,357.775726 683.613770,363.942810 674.687073,371.933441 
	C658.922913,386.044556 647.910645,403.490967 639.500366,422.832611 
	C633.335388,437.010315 626.290955,450.805237 619.657837,464.779907 
	C617.285461,469.778046 614.926758,474.783661 612.642639,479.822479 
	C610.942688,483.572479 608.133850,485.165588 604.028015,485.038452 
	C598.866516,484.878662 593.696167,485.010895 588.529663,484.997284 
	C581.858826,484.979706 581.124756,483.703918 583.919006,477.397583 
	C587.803162,468.631683 591.533386,459.797058 595.466431,451.053467 
	C606.269226,427.038208 617.193848,403.077759 627.975464,379.053040 
	C639.153320,354.145325 650.184570,329.171814 661.351379,304.259125 
	C666.406738,292.980957 671.639404,281.782318 676.777527,270.541138 
	C677.229614,269.551880 677.576294,268.514465 678.181946,266.960388 
	C671.918640,266.960388 666.159302,266.960388 660.210266,266.960388 
	C660.210266,264.926331 660.210266,263.309662 660.210266,261.000000 
	C666.230896,261.000000 672.335938,261.120911 678.434326,260.971130 
	C687.189697,260.756134 695.940369,260.350311 704.692566,260.012756 
	C708.670410,259.859344 710.092957,262.170288 708.256714,266.243988 
	C704.312622,274.994141 700.256531,283.694122 696.210510,292.398010 
	C686.951233,312.316772 677.665649,332.223328 668.414551,352.145905 
	C668.007080,353.023376 667.835266,354.010193 667.315491,355.251709 
z"/>
<path fill="#25857A" opacity="1.000000" stroke="none" 
	d="
M862.598511,477.741913 
	C871.401306,472.431183 879.843323,467.291626 888.315430,462.202087 
	C890.404480,460.947174 892.530212,459.711884 894.763550,458.759430 
	C895.648132,458.382172 896.871704,458.799713 898.871582,458.903778 
	C888.812988,472.369873 876.466370,480.777710 861.863220,485.889008 
	C855.458252,488.130859 848.902283,490.110046 841.838318,488.064392 
	C835.802124,486.316376 832.345459,482.604065 832.018982,476.331085 
	C831.906616,474.171936 832.001160,472.002014 832.001160,468.748108 
	C828.452942,471.455353 825.483826,473.748077 822.486206,476.002930 
	C811.989075,483.898926 800.246521,488.492279 787.035156,487.915222 
	C771.934937,487.255615 752.507446,476.713623 751.194336,456.138611 
	C750.494690,445.175659 753.844971,434.583435 757.897949,424.322754 
	C763.916199,409.086914 772.804871,395.815155 783.719849,383.637909 
	C797.299927,368.487274 812.822144,356.370880 832.653625,350.903870 
	C839.348389,349.058289 846.548279,347.986359 853.455627,348.239960 
	C861.979309,348.552917 868.188416,353.726959 872.084473,361.419647 
	C872.874878,362.980377 873.794800,364.475555 875.242676,367.042938 
	C878.067627,361.633850 880.693115,357.042908 882.887939,352.254547 
	C884.413330,348.926453 886.300293,348.273651 889.969666,348.721680 
	C894.461365,349.270081 899.127991,348.231598 903.723999,348.145905 
	C905.942017,348.104492 908.171448,348.673279 910.395630,348.965790 
	C910.117310,350.958069 910.285156,353.151733 909.491028,354.911255 
	C902.199524,371.066162 894.547302,387.060089 887.378296,403.268158 
	C877.394104,425.840454 867.663452,448.526062 857.999634,471.237793 
	C856.152771,475.578217 857.603455,477.414551 862.598511,477.741913 
M841.446777,440.052307 
	C849.872742,421.580139 858.390625,403.148865 866.645996,384.600739 
	C868.267395,380.957764 870.409973,376.536407 869.665466,373.037140 
	C867.285217,361.849426 856.629822,352.673889 843.066284,356.881653 
	C834.132996,359.653015 827.296021,365.500214 820.893188,371.747467 
	C806.541260,385.751007 796.552307,402.817780 788.607117,421.019287 
	C783.242126,433.310028 779.187073,446.143402 780.048157,459.848358 
	C780.937256,473.997742 786.709106,483.840820 804.212891,476.898560 
	C809.872803,474.653748 815.295410,471.430511 820.241455,467.847137 
	C829.788208,460.930634 837.721802,452.526764 841.446777,440.052307 
z"/>
<path fill="#25857A" opacity="1.000000" stroke="none" 
	d="
M530.072754,383.270782 
	C530.640015,381.703217 531.025818,379.487091 532.340698,378.300201 
	C545.448425,366.468353 554.922241,352.087189 563.820862,336.928558 
	C575.047485,317.804291 574.794067,298.530823 568.249451,278.477966 
	C564.540527,267.113647 561.002930,255.660858 556.582886,244.568832 
	C549.889709,227.772156 539.564636,213.016556 528.914368,198.530823 
	C528.053589,197.360046 526.510742,196.690750 524.724792,195.376160 
	C521.789307,213.912781 513.437195,228.969116 502.979553,243.019562 
	C492.504639,257.093170 480.134460,269.379425 466.130859,279.836609 
	C438.382751,300.557526 410.159760,320.643585 382.462067,341.430450 
	C367.950653,352.321106 354.812836,364.774445 345.075317,380.385864 
	C336.618530,393.943939 333.526001,408.602264 335.560699,425.888367 
	C340.190552,420.382019 343.883667,415.664551 347.923279,411.265320 
	C353.318756,405.389496 358.941284,399.718597 364.589447,394.083099 
	C365.240173,393.433807 366.676941,393.572327 368.094055,393.581482 
	C356.987305,405.778595 345.535736,417.739716 333.872375,429.922058 
	C333.345581,427.207123 332.382416,423.771149 332.050812,420.275269 
	C330.450989,403.407562 335.422455,388.385773 344.902466,374.547821 
	C355.755219,358.706024 369.842041,346.215363 385.169464,334.987946 
	C410.157593,316.684174 435.425293,298.753845 460.149384,280.101807 
	C470.053558,272.630035 479.416779,264.224152 487.989838,255.253052 
	C502.983459,239.563416 515.677368,222.209015 520.259949,200.301941 
	C521.328491,195.193665 521.817627,189.964188 522.611450,184.530212 
	C529.958618,190.486649 535.769409,197.990616 541.063965,206.072235 
	C556.715271,229.962448 567.949280,255.779892 574.627808,283.484222 
	C577.163086,294.001404 579.277283,305.115204 575.798218,315.648895 
	C570.095276,332.916229 561.210938,348.731689 549.576904,362.760529 
	C543.630249,369.931305 536.769897,376.344360 530.072754,383.270782 
z"/>
<path fill="#231F20" opacity="1.000000" stroke="none" 
	d="
M791.846069,574.000000 
	C776.410645,574.000000 761.455750,574.000000 746.457031,574.000000 
	C746.522156,573.687256 746.529785,573.214294 746.638733,573.189758 
	C755.649536,571.153137 757.446655,564.963989 757.123779,556.656311 
	C756.645264,544.344299 756.888062,531.998413 757.042419,519.669739 
	C757.133423,512.405579 755.314453,508.139038 748.075928,506.933319 
	C747.423462,506.824646 746.866333,506.144226 745.216125,505.005737 
	C761.073303,505.005737 775.773376,503.782166 790.174133,505.334839 
	C805.948975,507.035675 816.233032,518.348877 819.079529,535.475281 
	C820.729004,545.399536 819.026733,554.351929 813.726196,562.817932 
	C808.740723,570.780701 801.354858,573.900696 791.846069,574.000000 
M781.597351,572.000000 
	C789.716187,572.640930 795.522705,569.180542 800.161560,562.553833 
	C807.949707,551.428589 807.626160,539.484009 803.679382,527.551941 
	C798.961243,513.287903 787.795959,507.355774 773.842773,507.004517 
	C770.551758,506.921661 768.872925,508.029144 768.918457,511.857880 
	C769.110840,528.021973 769.053528,544.189941 768.974915,560.355957 
	C768.941162,567.298218 774.075806,573.099670 781.597351,572.000000 
z"/>
<path fill="#231F20" opacity="1.000000" stroke="none" 
	d="
M1061.169922,572.354370 
	C1050.911743,576.847107 1040.752930,577.404602 1030.451294,573.984131 
	C1017.408325,569.653625 1007.216431,555.929688 1006.782104,541.533325 
	C1006.079834,518.252563 1026.018677,500.798096 1048.515503,503.114166 
	C1065.110474,504.822662 1078.637573,518.135681 1081.123169,534.420227 
	C1082.877319,545.912598 1079.172729,555.475708 1072.280273,563.951416 
	C1069.516602,567.349792 1065.108887,569.411255 1061.169922,572.354370 
M1048.915894,506.020081 
	C1042.093750,505.615204 1035.371216,505.767609 1030.270508,511.263519 
	C1018.064941,524.414734 1015.501770,551.129456 1028.508057,565.989563 
	C1036.805420,575.469604 1049.380981,576.787231 1058.592651,567.052795 
	C1069.429199,555.601318 1069.492188,542.234558 1066.590332,528.232422 
	C1064.536743,518.322876 1060.127930,509.919952 1048.915894,506.020081 
z"/>
<path fill="#231F20" opacity="1.000000" stroke="none" 
	d="
M511.000061,535.313721 
	C513.843811,518.706360 523.467407,508.329498 538.992493,504.170105 
	C554.765259,499.944305 568.262207,505.282532 578.082031,517.860718 
	C587.551331,529.989990 588.196167,547.787659 578.498840,560.928894 
	C566.296143,577.465210 541.920776,581.433411 525.138245,569.378479 
	C516.099426,562.885864 510.643402,553.568237 510.991730,541.765503 
	C511.050629,539.770142 511.000000,537.771667 511.000061,535.313721 
M545.900635,573.967712 
	C554.252075,574.162415 560.562866,570.585205 565.046326,563.619629 
	C574.508484,548.919067 574.327026,533.711365 566.982239,518.385864 
	C562.583618,509.207611 555.073792,504.817017 544.723328,506.011658 
	C536.567383,506.953033 531.836487,512.504700 528.468628,519.148071 
	C524.328674,527.314331 523.140198,536.267212 524.073608,545.310364 
	C525.143433,555.675903 530.121887,569.701477 545.900635,573.967712 
z"/>
<path fill="#231F20" opacity="1.000000" stroke="none" 
	d="
M1117.220703,516.716553 
	C1124.976318,526.604187 1132.470825,536.232544 1139.989258,545.842224 
	C1142.217529,548.690308 1144.512695,551.485901 1146.777344,554.305542 
	C1147.334106,554.131958 1147.890747,553.958435 1148.447510,553.784851 
	C1147.946045,540.163696 1147.917358,526.495728 1146.578003,512.957397 
	C1146.279785,509.942535 1141.370239,507.383881 1139.246216,505.273499 
	C1145.213135,505.273499 1152.818604,505.273499 1161.330444,505.273499 
	C1156.741333,507.338715 1151.917358,508.310333 1151.579590,513.894592 
	C1151.481934,515.509521 1151.029297,517.112854 1151.025757,518.722168 
	C1150.985352,537.373657 1151.000000,556.025330 1151.000000,576.387817 
	C1148.057617,573.916382 1145.732056,572.535461 1144.163574,570.554810 
	C1132.249146,555.508972 1120.503784,540.329224 1108.651001,525.234314 
	C1106.475220,522.463623 1104.049438,519.889099 1101.006470,516.378906 
	C1101.006470,532.415771 1100.753174,547.334595 1101.126831,562.237732 
	C1101.283447,568.484558 1104.256836,573.342957 1111.507690,573.886230 
	C1103.880615,573.886230 1096.253662,573.886230 1088.626587,573.886230 
	C1097.796753,571.609680 1098.236084,564.657532 1098.072876,556.960999 
	C1097.804321,544.303833 1098.003418,531.636780 1097.998657,518.973938 
	C1097.995605,510.952484 1096.437744,508.979523 1088.450684,506.759094 
	C1088.004272,506.635010 1087.628174,506.257965 1086.839233,505.757629 
	C1106.133789,504.160889 1108.785889,503.325134 1117.220703,516.716553 
z"/>
<path fill="#231F20" opacity="1.000000" stroke="none" 
	d="
M720.891907,506.017700 
	C720.324890,505.973053 720.036011,505.990387 720.015747,505.924774 
	C719.930786,505.649597 719.926270,505.349609 719.892212,505.058716 
	C723.889771,505.039154 727.887329,505.013031 731.884949,505.002075 
	C735.382385,504.992493 738.879761,505.000000 742.853882,505.313751 
	C731.291870,506.984741 732.419434,516.186584 732.175964,523.608704 
	C731.619263,540.578430 732.000000,557.578979 732.000000,576.003235 
	C729.809570,574.152771 728.151794,573.145813 727.008179,571.725098 
	C716.075317,558.143372 705.213989,544.503967 694.367432,530.853149 
	C690.784424,526.343872 687.303772,521.753296 683.007141,516.207031 
	C683.007141,533.108276 682.851074,548.695923 683.089111,564.277527 
	C683.176086,569.967834 687.394470,572.433716 692.429382,573.828308 
	C684.802002,573.828308 677.174622,573.828308 668.966736,573.828308 
	C676.938293,571.589233 679.983215,567.519470 679.995300,559.602295 
	C680.013367,547.773071 679.942566,535.943542 680.019714,524.114807 
	C680.073242,515.904785 680.540833,507.565460 669.146423,505.620331 
	C677.210693,505.647064 685.573303,502.479248 692.188110,508.227936 
	C696.501282,511.976440 699.414368,517.326965 702.997314,521.926575 
	C710.791443,531.932434 718.607849,541.920898 726.438293,551.898315 
	C726.818420,552.382629 727.420105,552.693115 728.534851,553.568542 
	C728.732239,551.833923 728.978821,550.658325 728.982239,549.481995 
	C729.012573,538.985779 729.002686,528.489441 728.999023,517.993103 
	C728.996643,511.250122 727.221558,508.503754 720.891907,506.017700 
z"/>
<path fill="#231F20" opacity="1.000000" stroke="none" 
	d="
M614.493530,512.019836 
	C613.791626,522.899414 613.212280,533.479126 613.073364,544.064636 
	C612.997925,549.814148 613.276489,555.630737 614.098572,561.315369 
	C615.395142,570.280884 625.048157,574.604370 633.352905,573.813354 
	C635.384705,573.619812 637.433716,572.930786 639.332886,572.132019 
	C650.605225,567.391052 652.000000,565.228149 652.000000,553.038025 
	C652.000000,541.872375 652.000732,530.706787 651.999695,519.541138 
	C651.998901,511.019653 651.039368,509.703064 642.945862,506.947113 
	C642.377136,506.753448 641.904419,506.277649 640.616699,505.419861 
	C649.292969,505.419861 657.079102,505.419861 664.865234,505.419861 
	C654.304688,508.278534 654.985229,516.612854 654.996155,524.613586 
	C655.011230,535.612549 654.946838,546.611938 655.019287,557.610413 
	C655.065063,564.556091 651.799988,569.560303 645.844116,572.568237 
	C635.668335,577.707458 624.762329,577.246887 614.236450,574.515503 
	C605.013916,572.122253 601.090088,565.126099 601.016602,554.183594 
	C600.941589,543.018433 600.810669,531.848145 601.064514,520.688293 
	C601.242737,512.851929 601.125122,509.312134 591.082642,505.564789 
	C602.008057,505.564789 612.933533,505.564789 623.548035,505.564789 
	C620.673218,507.588226 617.736389,509.655334 614.493530,512.019836 
z"/>
<path fill="#231F20" opacity="1.000000" stroke="none" 
	d="
M487.184814,507.971741 
	C482.968506,507.719269 479.197571,507.490082 475.191956,507.246643 
	C475.191956,517.403015 475.191956,526.500183 475.191956,535.625793 
	C485.067047,537.851562 489.473389,531.628479 493.546875,523.113037 
	C493.546875,533.930725 493.546875,543.403442 493.546875,552.876099 
	C491.432526,543.004395 485.778320,538.201233 475.025024,539.148499 
	C475.025024,547.676636 474.502808,556.324097 475.341705,564.837463 
	C475.594971,567.407410 479.564545,569.669006 481.963074,571.932739 
	C482.638123,572.569885 483.779114,572.713318 484.492432,573.793335 
	C474.187378,573.793335 463.882294,573.793335 453.577209,573.793335 
	C462.059418,570.990234 463.383759,564.597351 463.101624,556.744446 
	C462.701202,545.599548 462.841370,534.426453 463.053772,523.271179 
	C463.204193,515.372742 462.754547,508.116089 453.082031,505.504669 
	C470.515503,505.504669 487.948975,505.504669 505.876495,505.504669 
	C506.303070,510.718750 506.754944,516.241943 507.206787,521.765198 
	C506.736603,522.009583 506.266418,522.253967 505.796265,522.498352 
	C502.101959,514.479431 497.861786,507.196838 487.184814,507.971741 
z"/>
<path fill="#231F20" opacity="1.000000" stroke="none" 
	d="
M867.978455,523.102783 
	C873.139832,535.968506 878.071655,548.528320 883.491821,560.873779 
	C887.170166,569.251770 887.476624,569.117249 896.207703,573.627380 
	C884.831360,573.627380 874.168335,573.627380 862.484741,573.627380 
	C865.347900,572.217651 867.857788,571.636963 869.312317,570.073975 
	C870.655640,568.630432 871.736084,565.972717 871.395142,564.134949 
	C870.701782,560.397888 868.955322,556.859009 867.673096,553.227783 
	C866.088379,548.739868 863.464172,546.060059 858.185730,546.931641 
	C855.755737,547.332886 853.141357,547.356201 850.721069,546.927429 
	C845.334656,545.973022 842.926147,548.984253 841.298523,553.316650 
	C841.016602,554.067139 841.005798,554.921265 840.712341,555.665466 
	C836.153381,567.228455 836.147400,567.226074 845.929565,573.716003 
	C837.872375,573.716003 830.233887,573.716003 820.992798,573.716003 
	C833.959534,569.775818 835.106812,558.672668 838.877197,549.632629 
	C844.434570,536.308167 849.163574,522.639893 854.439392,509.194122 
	C855.075684,507.572357 856.916443,506.423126 858.198914,505.054871 
	C859.465820,506.370880 861.147278,507.481384 861.920959,509.041931 
	C864.130615,513.498535 865.971191,518.138062 867.978455,523.102783 
M855.964905,524.692993 
	C855.474609,523.557678 854.984314,522.422424 854.080017,520.328552 
	C850.944031,528.564514 848.068665,536.116150 845.204834,543.637512 
	C851.542847,543.637512 857.214844,543.637512 863.500427,543.637512 
	C860.875366,537.231750 858.464722,531.349304 855.964905,524.692993 
z"/>
<path fill="#231F20" opacity="1.000000" stroke="none" 
	d="
M914.743591,572.799500 
	C921.905701,570.354736 923.990479,567.612061 923.995972,560.563660 
	C924.008667,544.241333 923.914062,527.918274 924.067505,511.597412 
	C924.100952,508.032867 922.465698,506.824890 919.405518,507.047058 
	C916.327148,507.270569 913.235168,507.680603 910.221130,508.338684 
	C903.808960,509.738708 900.096619,514.091248 898.015076,520.080566 
	C897.532471,521.469055 896.963440,522.827454 896.434204,524.199768 
	C895.889099,524.063354 895.343933,523.926941 894.798767,523.790527 
	C895.204956,517.710876 895.611145,511.631134 896.035400,505.281067 
	C918.921997,505.281067 941.660767,505.281067 965.057556,505.281067 
	C965.057556,511.360596 965.057556,517.514709 965.057556,524.318176 
	C964.317810,523.701538 963.225098,523.255981 963.073059,522.594299 
	C960.705994,512.293030 954.151855,507.733124 943.764771,507.924805 
	C941.398804,507.968475 939.016479,507.118134 936.000000,506.560730 
	C936.000000,511.763458 936.000000,516.376404 936.000000,520.989319 
	C936.000000,532.814636 936.189392,544.644104 935.932373,556.463867 
	C935.765259,564.152344 936.152283,571.141418 946.241394,572.781128 
	C946.010559,573.187378 945.779724,573.593689 945.548828,574.000000 
	C938.268188,574.000000 930.986023,574.086914 923.707642,573.958923 
	C920.625549,573.904724 917.551392,573.398987 914.743591,572.799500 
z"/>
<path fill="#231F20" opacity="1.000000" stroke="none" 
	d="
M480.065002,441.010620 
	C478.933929,440.456329 478.202362,439.951202 477.032104,439.143127 
	C484.505371,439.143127 491.428650,439.143127 499.483521,439.143127 
	C487.016663,443.147125 493.955170,452.590759 491.603363,459.757263 
	C499.730865,459.757263 507.127350,459.757263 514.518616,459.757263 
	C515.694031,442.430786 515.556458,441.929779 507.614624,439.331421 
	C515.546692,439.331421 522.484375,439.331421 530.125916,439.331421 
	C524.978333,440.748230 523.868042,444.184387 523.951782,448.597229 
	C524.115967,457.251007 523.948364,465.910461 524.017273,474.566803 
	C524.067200,480.843170 522.419250,481.568665 531.216248,485.632019 
	C523.491333,485.632019 516.546326,485.632019 509.073120,485.632019 
	C513.070435,483.904510 515.503784,481.432251 515.073669,476.864410 
	C514.700684,472.903595 515.113159,468.871368 514.804504,464.899719 
	C514.749695,464.194305 512.920776,463.484344 511.804077,463.054596 
	C511.078796,462.775543 510.159485,463.000122 509.327087,463.000092 
	C503.703918,462.999878 498.080780,463.000000 492.004730,463.000000 
	C492.004730,468.622498 491.409058,473.998383 492.259247,479.134949 
	C492.676331,481.654633 495.776489,483.730225 497.399628,485.689636 
	C491.149750,485.689636 483.868073,485.689636 476.586426,485.689636 
	C483.254242,483.876099 483.241852,478.714661 483.068634,473.119629 
	C482.806030,464.637390 483.171356,456.135162 482.883942,447.654510 
	C482.808594,445.431488 481.309662,443.256714 480.065002,441.010620 
z"/>
<path fill="#231F20" opacity="1.000000" stroke="none" 
	d="
M978.000000,534.000366 
	C978.000000,528.341309 977.837769,523.175720 978.039246,518.024414 
	C978.316467,510.938141 974.390015,507.541199 968.106567,505.488953 
	C978.699768,505.488953 989.292908,505.488953 999.886108,505.488953 
	C996.044312,507.875244 991.247925,508.708801 990.413696,514.100525 
	C990.189026,515.552124 990.020996,517.029541 990.017517,518.495544 
	C989.987183,531.310303 990.292480,544.134216 989.891052,556.936462 
	C989.647339,564.711182 990.589233,571.124634 999.539246,573.567993 
	C989.199585,573.567993 978.859924,573.567993 968.542786,573.567993 
	C968.594055,573.379883 968.615173,572.859192 968.764221,572.819580 
	C976.217346,570.837158 978.437012,565.735657 978.087219,558.461426 
	C977.703979,550.491394 978.000000,542.488708 978.000000,534.000366 
z"/>
<path fill="#231F20" opacity="1.000000" stroke="none" 
	d="
M446.000000,467.983521 
	C446.000000,460.158386 446.007843,452.830048 445.997314,445.501740 
	C445.990143,440.510406 443.567596,438.452942 439.035553,440.696472 
	C435.335663,442.528076 432.326233,445.803802 429.132568,448.579529 
	C428.129059,449.451721 427.520752,450.778564 426.099609,452.793152 
	C426.565277,447.221436 426.926941,442.894257 427.335999,438.000000 
	C437.488464,438.000000 447.754700,437.999969 458.020966,438.000000 
	C462.351349,438.000000 466.706207,437.741302 470.998169,438.147400 
	C472.407440,438.280762 474.606506,439.994598 474.792603,441.233734 
	C475.314301,444.707397 474.974396,448.310516 474.253998,452.432648 
	C471.985870,441.800873 463.858643,440.957855 455.000000,440.148804 
	C455.000000,444.795776 455.000000,449.511108 455.000000,454.226471 
	C455.000000,461.221680 455.383118,468.244751 454.877014,475.203156 
	C454.482605,480.625824 456.755432,483.521576 462.782043,485.594757 
	C454.549774,485.594757 447.602112,485.594757 441.120178,485.594757 
	C448.975586,482.116821 445.097992,474.566071 446.000000,467.983521 
z"/>
<path fill="#231F20" opacity="1.000000" stroke="none" 
	d="
M561.999573,485.833344 
	C552.871216,485.833344 543.742859,485.833344 533.619324,485.833344 
	C540.972595,482.694702 541.129028,476.783813 540.972473,470.856750 
	C540.746826,462.313782 540.433044,453.769348 539.886047,445.242920 
	C539.808960,444.042480 538.199890,442.940308 537.140625,441.085358 
	C536.987610,439.640930 536.994019,438.903778 537.000427,438.166656 
	C540.696594,438.116150 544.392822,438.065643 548.547302,438.415680 
	C549.017761,439.249084 549.029968,439.681976 549.042114,440.114838 
	C549.105347,446.647491 549.168518,453.180145 549.618652,460.264526 
	C550.017761,461.249084 550.029968,461.681915 550.042114,462.114777 
	C550.125671,468.003876 549.194946,474.156952 550.635559,479.692902 
	C551.661926,483.637146 556.555908,485.341461 561.590149,485.257690 
	C562.000000,485.500000 561.999573,485.833344 561.999573,485.833344 
z"/>
<path fill="#231F20" opacity="1.000000" stroke="none" 
	d="
M549.481812,440.062622 
	C549.029968,439.681976 549.017761,439.249084 549.002563,438.491455 
	C554.467346,438.111084 559.938171,437.931732 565.401062,438.070190 
	C567.203308,438.115875 570.138184,438.538483 570.533997,439.566711 
	C571.341248,441.664032 570.775757,444.289703 570.160645,446.794098 
	C564.727600,439.419250 556.967041,440.770233 549.481812,440.062622 
z"/>
<path fill="#231F20" opacity="1.000000" stroke="none" 
	d="
M562.460022,485.909210 
	C561.999573,485.833344 562.000000,485.500000 562.000305,485.333313 
	C567.730652,482.963257 572.440002,479.672272 574.719482,473.480072 
	C574.719482,477.472900 574.719482,481.465759 574.719482,485.985077 
	C570.802734,485.985077 566.861633,485.985077 562.460022,485.909210 
z"/>
<path fill="#231F20" opacity="1.000000" stroke="none" 
	d="
M550.421021,462.066559 
	C550.029968,461.681915 550.017761,461.249084 550.002563,460.491455 
	C555.223938,460.685669 558.890076,458.808289 560.583618,453.470886 
	C560.583618,458.604309 560.583618,463.737732 560.583618,467.696503 
	C557.416687,465.858521 554.108215,463.938446 550.421021,462.066559 
z"/>
<path fill="#25857A" opacity="1.000000" stroke="none" 
	d="
M369.071045,393.271729 
	C368.072266,389.441467 370.317200,388.325714 374.088074,388.579163 
	C372.733215,390.244995 371.026733,391.673065 369.071045,393.271729 
z"/>
<path fill="#231F20" opacity="1.000000" stroke="none" 
	d="
M536.609253,438.091248 
	C536.994019,438.903778 536.987610,439.640930 536.969604,440.746460 
	C535.594177,440.582764 534.230347,440.050659 532.866577,439.518555 
	C532.901550,439.162231 532.936462,438.805908 532.971436,438.449585 
	C534.053650,438.304993 535.135864,438.160400 536.609253,438.091248 
z"/>
<path fill="#25857A" opacity="1.000000" stroke="none" 
	d="
M375.054016,388.286133 
	C373.596252,385.382599 375.280853,385.013947 378.076050,385.574615 
	C377.393616,386.584167 376.342926,387.353912 375.054016,388.286133 
z"/>
<path fill="#25857A" opacity="1.000000" stroke="none" 
	d="
M526.054077,386.286163 
	C524.596375,383.382812 526.280762,383.013916 529.076050,383.574585 
	C528.393677,384.584198 527.342957,385.353973 526.054077,386.286163 
z"/>
<path fill="#25857A" opacity="1.000000" stroke="none" 
	d="
M520.038147,390.331116 
	C520.439575,389.763336 521.071472,389.050934 522.075684,388.575409 
	C521.721558,389.270355 520.995056,389.728424 520.038147,390.331116 
z"/>
<path fill="#25857A" opacity="1.000000" stroke="none" 
	d="
M523.038147,388.331116 
	C523.439575,387.763336 524.071472,387.050934 525.075684,386.575409 
	C524.721558,387.270355 523.995056,387.728424 523.038147,388.331116 
z"/>
<path fill="#25857A" opacity="1.000000" stroke="none" 
	d="
M379.038055,385.331146 
	C379.439545,384.763336 380.071442,384.050934 381.075714,383.575439 
	C380.721527,384.270416 379.994995,384.728485 379.038055,385.331146 
z"/>
<path fill="#25857A" opacity="1.000000" stroke="none" 
	d="
M382.063110,383.312439 
	C381.696747,382.908844 381.571045,382.358185 381.445312,381.807495 
	C382.119354,381.801025 382.793365,381.794586 383.786438,381.919312 
	C383.504883,382.422089 382.904297,382.793701 382.063110,383.312439 
z"/>
<path fill="#25857A" opacity="1.000000" stroke="none" 
	d="
M517.332703,392.064453 
	C517.631531,391.540527 518.221558,390.965576 519.127747,390.604401 
	C518.837280,391.216553 518.230591,391.614960 517.332703,392.064453 
z"/>
<path fill="#25857A" opacity="1.000000" stroke="none" 
	d="
M483.512665,146.535309 
	C483.986023,146.843872 484.249664,147.318405 484.513306,147.792969 
	C484.061646,147.737473 483.610046,147.681961 483.043610,147.354980 
	C483.053528,146.956100 483.178223,146.828690 483.512665,146.535309 
z"/>
<path fill="#FFFFFF" opacity="1.000000" stroke="none" 
	d="
M250.431702,270.754028 
	C220.620300,260.340393 207.093460,222.470215 227.970428,196.431366 
	C238.052444,183.856552 251.099930,176.936279 266.874298,177.211960 
	C289.285400,177.603607 308.643555,192.046417 313.932037,214.930161 
	C317.940765,232.276093 313.151398,247.714645 300.444366,259.762390 
	C286.439575,273.040527 269.365326,276.179749 250.431702,270.754028 
z"/>
<path fill="#FFFFFF" opacity="1.000000" stroke="none" 
	d="
M841.256714,440.391235 
	C837.721802,452.526764 829.788208,460.930634 820.241455,467.847137 
	C815.295410,471.430511 809.872803,474.653748 804.212891,476.898560 
	C786.709106,483.840820 780.937256,473.997742 780.048157,459.848358 
	C779.187073,446.143402 783.242126,433.310028 788.607117,421.019287 
	C796.552307,402.817780 806.541260,385.751007 820.893188,371.747467 
	C827.296021,365.500214 834.132996,359.653015 843.066284,356.881653 
	C856.629822,352.673889 867.285217,361.849426 869.665466,373.037140 
	C870.409973,376.536407 868.267395,380.957764 866.645996,384.600739 
	C858.390625,403.148865 849.872742,421.580139 841.256714,440.391235 
z"/>
<path fill="#FFFFFF" opacity="1.000000" stroke="none" 
	d="
M781.143860,572.000000 
	C774.075806,573.099670 768.941162,567.298218 768.974915,560.355957 
	C769.053528,544.189941 769.110840,528.021973 768.918457,511.857880 
	C768.872925,508.029144 770.551758,506.921661 773.842773,507.004517 
	C787.795959,507.355774 798.961243,513.287903 803.679382,527.551941 
	C807.626160,539.484009 807.949707,551.428589 800.161560,562.553833 
	C795.522705,569.180542 789.716187,572.640930 781.143860,572.000000 
z"/>
<path fill="#FFFFFF" opacity="1.000000" stroke="none" 
	d="
M1049.332886,506.131287 
	C1060.127930,509.919952 1064.536743,518.322876 1066.590332,528.232422 
	C1069.492188,542.234558 1069.429199,555.601318 1058.592651,567.052795 
	C1049.380981,576.787231 1036.805420,575.469604 1028.508057,565.989563 
	C1015.501770,551.129456 1018.064941,524.414734 1030.270508,511.263519 
	C1035.371216,505.767609 1042.093750,505.615204 1049.332886,506.131287 
z"/>
<path fill="#FFFFFF" opacity="1.000000" stroke="none" 
	d="
M545.511475,573.803955 
	C530.121887,569.701477 525.143433,555.675903 524.073608,545.310364 
	C523.140198,536.267212 524.328674,527.314331 528.468628,519.148071 
	C531.836487,512.504700 536.567383,506.953033 544.723328,506.011658 
	C555.073792,504.817017 562.583618,509.207611 566.982239,518.385864 
	C574.327026,533.711365 574.508484,548.919067 565.046326,563.619629 
	C560.562866,570.585205 554.252075,574.162415 545.511475,573.803955 
z"/>
<path fill="#FFFFFF" opacity="1.000000" stroke="none" 
	d="
M856.009521,525.079956 
	C858.464722,531.349304 860.875366,537.231750 863.500427,543.637512 
	C857.214844,543.637512 851.542847,543.637512 845.204834,543.637512 
	C848.068665,536.116150 850.944031,528.564514 854.080017,520.328552 
	C854.984314,522.422424 855.474609,523.557678 856.009521,525.079956 
z"/>
</svg>